<?xml version="1.0" encoding="utf-8"?>
<!-- Generator: Adobe Illustrator 21.1.0, SVG Export Plug-In . SVG Version: 6.00 Build 0)  -->
<svg version="1.1" id="Layer_1" xmlns="http://www.w3.org/2000/svg" xmlns:xlink="http://www.w3.org/1999/xlink" x="0px" y="0px"
	 viewBox="0 0 1920 1080" style="enable-background:new 0 0 1920 1080;" xml:space="preserve">
<style type="text/css">
	.st0{enable-background:new    ;}
	.st1{fill:#FFFFFF;}
</style>
<g>
	<g class="st0">
		<path class="st1" d="M623.5,738c-14.1-6.6-21-14.6-20.7-24.1c0.2-5.7,3.9-12.5,11.3-20.4c1.9-1.8,6.5-3.1,13.7-3.9
			c7.1-0.3,12-3,14.5-8.1c10.5-20.1,16.1-41.4,16.7-63.7c0.8-29.9-13.4-75-42.6-135.2c-28.8-59.7-42.6-107.2-41.6-142.3
			c0.8-29,7.2-54.7,19.3-77.2c13.6-25.8,32.3-44,56.4-54.7c12-4.9,22.8-7.2,32.3-6.9c19.9,0.6,34.7,6.4,44.4,17.6
			c4.6,4.9,6.8,10.2,6.7,15.9c-0.3,9.5-7.4,17.6-21.4,24.4c-1.9,0.9-4.1,1.3-6.5,1.2c-2.8-0.1-4.7-0.4-5.7-0.9
			c-5.2-2-8.7-3.1-10.6-3.1c-2.8-0.1-5.7,1.3-8.7,4c-26.4,24.9-40.1,55.9-41.1,92.9c-0.4,13.8,1.4,26.7,5.3,38.6
			c0.9,2.4,5.6,13,14.1,31.8s20.8,45.5,37,80.2c21.5,46.2,31.8,85.3,30.9,117.1c-0.7,26.1-7.8,51.1-21.3,75
			c-4.5,7.9-15.5,18.1-32.9,30.4c-14.1,9.6-26.5,14.2-37.5,13.9C630.8,740.3,626.8,739.5,623.5,738z"/>
		<path class="st1" d="M849.8,779.9c-0.4,13.8,0.1,26.5,1.4,38.2c1.3,11.7,1.9,22.5,1.6,32.5c-0.1,4.3-0.9,9.5-2.2,15.6
			c-1.4,6.1-3.5,12-6.6,17.6c-3,5.6-6.9,10.3-11.8,13.9c-4.9,3.7-11.1,5.4-18.7,5.2c-7.1-0.2-14.1-3.4-20.8-9.5s-10-13-9.8-20.6
			c0.1-2.4,0.3-5.1,0.6-8.2c0.3-3.1,0.8-6.3,1.3-9.6c-0.3-8.1-0.3-16.2,0-24.2c0.2-8.1,0.5-16.1,0.7-24.2
			c0.7-24.7,1.6-49.5,2.8-74.4s2.1-50.9,2.9-78c0.6-19.9,0.9-40,1-60.2s0.5-42.4,1.1-66.6c0.6-19.9,0.3-39.3-0.9-58.1
			c-1.1-18.8-1.4-38.2-0.9-58.1c0.2-8.5,2.2-14.9,5.9-19.1s11.7-6.1,24-5.7c13.3,0.4,22.1,3.7,26.5,10c4.3,6.3,7.8,14,10.4,23.1
			c3.8-1.3,8.5-2.8,14-4.6c5.5-1.7,10.2-2.6,14-2.5l5,0.1c12.8,0.4,22.5,1.7,29.1,4s13.1,5.5,19.7,9.5l2.1,1.5
			c0.5,0,0.8,0.1,1.1,0.4c0.2,0.3,0.6,0.4,1.1,0.4c8.9,5,17.1,11.9,24.7,20.7c7.6,8.8,14.1,18.5,19.5,29.1s9.6,21.7,12.6,33.1
			c3,11.5,4.4,22.5,4.1,32.9c-0.4,12.8-3.5,26.5-9.3,41.1c-5.9,14.6-14.4,27.9-25.7,39.9s-25.4,21.9-42.5,29.5s-37,11.1-59.8,10.4
			c-1.9-0.1-4-0.1-6.4-0.2c-2.4-0.1-4.7-0.6-7.1-1.6c-1,1.9-1.6,4.6-1.7,8.2c-0.1,3.6-0.3,11.5-0.7,23.9L849.8,779.9z M915.4,598.6
			c16.1-15.7,24.5-35.2,25.2-58.5c0.2-8.5-0.8-17-3.2-25.4c-2.4-8.4-6-16.2-10.8-23.5s-10.6-13.4-17.3-18.3
			c-6.8-4.9-14.6-8.3-23.6-9.9l-9.4,3.3c-2.9,0.9-6.4,2.6-10.5,5.1s-6.7,4.2-7.6,5.1c-0.5,0.5-0.9,0.9-1.1,1.4
			c-0.3,0.5-0.9,0.9-1.8,1.4c-1,0.9-1.6,5.4-1.8,13.5c-0.3,9-0.2,19.6,0.2,31.7s0.5,20.6,0.4,25.3l-0.7,24.2
			c-0.3,10.5-0.1,20,0.6,28.5c0.7,8.6,3,12.9,6.8,13c7.1,0.2,13.7-0.2,19.6-1.2c6-1,12.8-3.3,20.5-6.9L915.4,598.6z"/>
		<path class="st1" d="M1132.3,669.5c0,1,0.2,1.9,0.6,2.9s0.7,1.9,0.6,2.9c-0.2,7.6-3.6,13.1-10.1,16.5s-13.1,5-19.7,4.8
			c-11.9-0.3-21.2-7.1-27.9-20.4s-11.8-28.6-15.1-46c-3.3-17.4-5.3-34.7-6-51.9c-0.7-17.1-0.9-30-0.7-38.5c0.6-23.3,1.1-44,1.4-62.3
			s0.7-37.4,1.2-57.4c0.7-26.1,2.7-51.6,6.1-76.5c3.3-24.9,5.3-50.8,6.1-77.9c0.2-6.2,1.7-11.1,4.7-14.8s6.9-7.4,11.7-11.1
			c3.8,0.1,8.4,0.5,13.9,1.1c5.4,0.6,10.5,2,15.2,4s8.7,4.8,11.9,8.2c3.2,3.4,4.8,8.2,4.6,14.4c-0.3,12.4-1.9,24.8-4.6,37.3
			s-4.3,25-4.6,37.3c-0.5,18.1-1.1,34.3-1.7,48.8s-1.2,28.8-1.6,43.1c-0.3,12.4-0.4,24.1-0.3,35.3c0.2,11.2,0.1,22.5-0.2,33.9
			c-0.2,8.1-0.3,15.8-0.3,23.2s0,14.4-0.2,21c-0.5,18.5,0.9,39.2,4.3,62.1C1124.9,632.2,1128.5,652.3,1132.3,669.5z"/>
		<path class="st1" d="M1433.7,672.9c1.3,3.8,2.6,7.8,3.9,11.9c1.3,4.1,1.9,8,1.8,11.8s-1.3,6.8-3.5,9.2c-2.2,2.3-4.9,4.1-8,5.5
			c-3.1,1.3-6.4,2.3-9.7,2.9c-3.3,0.6-6.4,0.9-9.3,0.8c-9.5-0.3-17.2-5.8-23.1-16.7S1375.3,674,1372,658c-3.4-16-6.1-33-8.2-50.8
			c-2.1-17.9-4.2-34-6.1-48.3c-1.7,9.9-6.7,22.4-14.9,37.4c-8.3,15-18.5,29.3-30.8,43s-25.7,25.3-40.2,34.9
			c-14.5,9.6-28.9,14.2-43.2,13.8c-11.4-0.3-20.7-2.8-27.9-7.6c-7.2-4.7-12.7-10.4-16.3-17.2c-3.6-6.8-6-14.3-7.2-22.7
			c-1.2-8.3-1.7-16.1-1.5-23.2c0.4-15.7,4.9-34.9,13.4-57.7s19.8-44.9,33.9-66.4c14.1-21.5,30.3-39.7,48.6-54.6
			c18.2-14.9,37.3-22.1,57.3-21.6c4.3,0.1,9.1,1,14.5,2.5c5.4,1.6,11,3.5,16.6,5.8s11,5.1,16.2,8.3c5.1,3.2,9.6,6.3,13.3,9.3
			c7.9,6.9,13.1,16,15.6,27.5s4.3,23.4,5.4,35.8c2.7,23.8,4.7,45.4,6,64.7c1.4,19.3,4.3,39.7,9,61.2l3.5,26.5L1433.7,672.9z
			 M1233.9,630.3c0,0.5,0.1,0.8,0.3,1.1c0.2,0.3,0.3,0.6,0.3,1.1c6.2-0.3,13.4-4.3,21.7-11.9c8.3-7.6,16.6-16.8,25-27.5
			s16.2-22,23.4-33.9c7.2-11.9,12.6-22.6,16.2-32c2-4.2,4.4-8.9,7.2-14.1c2.8-5.1,5.5-10.4,8.3-15.8s5-10.4,6.8-15.1s2.7-8.7,2.8-12
			c-2.4-1-4.5-2-6.3-3c-1.9-1-4-1.5-6.4-1.6c-10.5-0.3-19.8,3.5-28.1,11.3c-8.3,7.9-15.6,16.7-21.8,26.5
			c-6.2,9.8-11.4,19.3-15.4,28.4c-4.1,9.2-6.8,14.9-8.3,17.2c-7,11.7-12.9,24.4-17.8,38c-4.9,13.7-7.5,26.9-7.9,39.7L1233.9,630.3z"
			/>
		<path class="st1" d="M1570.5,549.8c9,18.3,17.3,36.7,24.8,55.2c7.6,18.5,11,39.2,10.4,62c-0.3,11.9-2.7,23-7,33.3
			s-10.2,19.4-17.5,27.3c-7.3,7.9-16.1,14-26.2,18.5s-20.9,6.5-32.3,6.2c-10-0.3-19-4.5-27.1-12.5c-8.1-8.1-12.5-17.1-13.1-27.1
			c2-3.8,3.9-6.4,5.6-8s5.4-3.1,11.2-4.3c5.5,5.9,11.2,8.9,16.9,9c8.1,0.2,15.3-3.1,21.7-10.1c6.4-7,9.7-15.9,10-26.8
			c0.1-3.8-0.1-6.2-0.5-7.1c-4.6-21.5-10.7-41-18.3-58.6c-7.6-17.6-15.1-34-22.5-49.5c-7.4-15.4-13.8-30-19.1-43.7
			c-5.3-13.7-7.8-27.4-7.4-41.2c0.3-11.4,1.6-23.1,3.8-35.2c2.2-12.1,5.9-23.2,10.9-33.6c5-10.3,11.6-18.7,19.6-25.1
			s18.2-9.5,30.5-9.1c1.4,0,2.7,0.2,3.9,0.5c1.2,0.3,2.5,0.4,3.9,0.5c4.7,0.1,8.7,2.7,11.9,7.8c3.2,5.1,5.4,9.5,6.8,13.4
			c-0.1,3.8-1.5,6.7-4.2,8.8c-2.7,2.1-5.2,4.3-7.7,6.6c-5.9,7.4-10.3,15.8-13.2,24.9c-2.9,9.2-4.4,18.5-4.7,28l-0.5,17.1
			c-0.1,3.3,1,8.1,3.2,14.3c2.2,6.2,4.7,12.9,7.6,19.8c2.9,7,5.8,13.5,8.7,19.5c2.9,6,5.3,10.5,7.1,13.4L1570.5,549.8z"/>
		<path class="st1" d="M1653.2,597.8c0.8-27.1,0.9-55.1,0.6-84.1c-0.4-29-0.2-57.7,0.6-86.2c0.5-17.1,1.2-35,2.2-53.8
			c1-18.7,2.2-36.9,3.7-54.4c1.4-17.5,3.4-34.2,6-50.1c2.6-15.8,5.7-29.4,9.3-40.7c8.1-2.1,15.1-3.1,20.8-3
			c10,0.3,17.2,4.2,21.8,11.7c4.5,7.5,6.7,16,6.4,25.5c-0.3,11.9-1.6,22.4-3.7,31.6c-2.2,9.2-3.6,19-4.4,29.5
			c-1.5,20.9-2.9,40.2-4.1,58s-2.2,35-2.9,51.6c-0.7,16.6-1.4,32.9-2.1,48.8s-1.3,32.2-1.7,48.8c5.6-12.7,11.9-24.9,18.8-36.5
			c7-11.7,14.3-22.1,21.9-31.1c7.6-9.1,15.7-16.2,24.1-21.4c8.5-5.2,16.7-7.7,24.8-7.5c12.8,1.3,23.2,6.2,31.3,14.8
			c8.1,8.5,14.3,18.6,18.8,30.1c4.4,11.5,7.4,23.3,9,35.2c1.6,11.9,2.2,21.7,2,29.3c1.7,7.7,2.8,16.4,3.2,26.1
			c0.4,9.8,1,18.7,1.7,26.8c1.5,15.7,4.3,31.8,8.6,48.4c4.3,16.5,6.7,31.7,7.3,45.5c-1.6,4.7-4.8,8.9-9.6,12.6
			c-4.9,3.7-9.2,5.4-13,5.3c-11.9-0.3-21.2-6.3-28-17.9c-6.8-11.6-11.9-24.9-15.3-40s-5.5-30.2-6.2-45.4c-0.8-15.2-1-26.4-0.8-33.5
			c0.2-5.7-0.2-12.8-1.2-21.4c-1-8.6-2.1-16.8-3.6-24.7s-3-14.6-4.8-20.1s-3.6-8.3-5.5-8.3c-5.8,1.7-11.3,6.1-16.8,13.1
			c-5.4,7-10.5,15.5-15.3,25.6s-9.3,20.8-13.4,32.1s-7.6,22.1-10.5,32.5s-5.3,19.6-7.2,27.6c-1.9,8-3.1,13.5-3.7,16.3l-0.1,3.6
			c0,1-0.2,1.5-0.4,1.8c-0.3,0.2-0.4,0.8-0.4,1.8l-0.1,2.8c-0.6,5.2-1.4,10.4-2.2,15.6c-0.9,5.2-2.1,10-3.6,14.5
			c-1.6,4.5-3.6,8.1-6,10.9c-2.5,2.8-5.4,4.1-8.7,4c-12.4-0.3-21.9-3.2-28.6-8.6c-6.7-5.4-11.7-12.3-14.7-20.7
			c-3.1-8.4-4.7-17.7-4.9-27.9c-0.2-10.2-0.1-20.6,0.2-31L1653.2,597.8z"/>
	</g>
	<g>
		<g>
			<g>
				<path class="st1" d="M642.6,997.2c-70.5,17-76.6,10.5-154.1,5.4c-66.8-4.4-71.4,10.1-43.4,17.4c41.9,11,131,16.2,217.2,0
					c92.3-17.3,60.8-17.4,130.3-17.4c86.8,10.7,121.7-8.7,163.6-8.4c36.3-0.3,94.9-3.7,121.2-3.8c26.3,0,33.8-9.3,28-13.9
					c-5.8-4.6-77.7-17.4-156.4-17.4c-60.8,0-139.5,11-166.5,6.6C754.8,958.6,720.2,977.4,642.6,997.2L642.6,997.2z"/>
			</g>
		</g>
		<g>
			<g>
				<path class="st1" d="M994.3,1060.9c-10.7-4.2,27.1-22.7,84-41c84-27,120.7-31.7,195-24.7c71.6,6.7,95.3,4.1,108.8-12.2
					c44-53-38.5-108.3-161.6-108.3c-46.7,0-142.3,19.8-189.4,3.2c-84.1-29.5-52.1-34.8-60.8-8.7c-5.5,16.5,20,21.7,176.5,46.6
					c47.8,7.6,56.9,12.7,37.8,21.2c-14.1,6.2-63.5,3-112-7.3c-98.6-21-197-23.1-338.9-7.1c-79,8.9-110.2,6.3-161-13.5
					c-67.7-26.3-114.2-31.4-364.1-40.2c-88.6-3.1-93.9-35.8-62.9-56.1c45.4-29.7,94.7-28,160.9,5.8c63.4,32.3,126,36.9,126,9.1
					c0-10.4,86.5-46.5,124.4-8.6c32.5,32.5,54,41.5,98.8,41.5c70.4,0,375.4-65.9,410.1-43.6c113,0,330.2,43.4,374.9,78.6
					c27.2,16.8,14.6,85.6-22.1,120.1c-33.8,31.8-46.4,34-199.6,34.6c-89.9,0.4-172.9,4.7-184.5,9.4
					C1023.2,1064.7,1005,1065.1,994.3,1060.9L994.3,1060.9z"/>
			</g>
		</g>
		<g>
			<g>
				<path class="st1" d="M334.5,948.9c-45.4-19.7-116.5-19.4-231.1,0.9c-15.4,2.7,11.1-38.5,83.4-49.7
					c89.9-14,107.8-12.6,177.6,13.5c53.5,20,95.5,26.6,135,21.3c60-8,129.2,3,129,20.5C628.2,976.3,385,970.9,334.5,948.9
					L334.5,948.9z"/>
			</g>
		</g>
	</g>
	<g>
		<g>
			<g>
				<path class="st1" d="M448.9,825.8c52.1-43.4,83.4-95.6,95.6-43.4c10.4,44.7,33.6,32.1,71.7,55.8
					c59.8,37.2,225.2-25.5,383.5-95.8c71.5-31.7,118.2-43.7,137.4-35.3c36,15.8,25,36.6-23.4,44c-20,3.1-40.5,12.1-45.5,20.1
					c-25.1,40.4,22.6,42.1,185.5,6.9c130.2-28.1,187.3-33.6,209.3-19.9c46.3,28.7,23.8,42.9-67.6,42.5c-45.6-0.2-84.7,7-86.8,16
					c-2.3,9.6,24.9,34.5,66.3,60.6c82.2,51.9,45.1,121.9,8.7,134.1c-16.2,5.4,16.4-23.4,8.7-69.5c-8.7-52.1-713.1-40.7-726.1-37.7
					C627.2,913.1,427.6,843.6,448.9,825.8z"/>
			</g>
		</g>
		<g>
			<g>
				<path class="st1" d="M1175.6,777c10.1-36.6,183.6-96.8,199.3-69.2c12.4,21.9-1.6,30.9-51.7,33.3c-28.6,1.4-74.2,12.7-101.4,25.2
					S1173.8,783.6,1175.6,777L1175.6,777z"/>
			</g>
		</g>
		<g>
			<g>
				<path class="st1" d="M1596.8,744c9.8-15.8,163.8,1.4,197,22c50.1,31.1,4.2,41.4-73.7,16.5c-41.1-13.1-82.9-22.1-92.9-19.9
					C1604.1,767.8,1588.1,758.1,1596.8,744L1596.8,744z"/>
			</g>
		</g>
	</g>
	<g>
		<g>
			<g>
				<path class="st1" d="M512.5,885.1c31.8-60-75.1-154.2-103.5-171.3c-81.3-49-42.8-104.4,45.6-65.6c84,36.9,99.7-44.5,18.5-95.9
					c-54.6-34.5-65.9-61.6-32.8-78.2c14.1-7.1,26.8-19.4,28.1-27.5c3.6-21.2-147.3-210.1-199.2-249.3C245,179,194.9,149.1,158,131
					C29.8,68.3-29.8,4.1,53.1,18.2c109.6,18.5,361,269.3,474.1,472.8c58.2,104.7,59.3,109.4,40.1,172.3
					c-18,59.1-13.8,101.7,17.2,145.4c26.6,37.4,43.2,17,87.4,24.5c69.4,11.8,82.1,34.4,71.2,42.1
					C710.5,898.4,499.5,909.6,512.5,885.1z"/>
			</g>
		</g>
		<g>
			<g>
				<path class="st1" d="M343.6,567.1C262.2,535,240,498,309.1,509.7c47.6,8.1,118.9,55.5,115.3,76.7c-1.3,7.4-3.7,12.5-5.5,11.3
					C417.2,596.5,383.3,582.7,343.6,567.1L343.6,567.1z"/>
			</g>
		</g>
		<g>
			<g>
				<path class="st1" d="M291.9,454.1c-10-9-60.6-31.3-112.3-49.5C86.9,372,53.5,350.7,57.5,326.9C64.4,286,244.1,371,313.9,448.2
					C339.5,476.6,322.1,481.2,291.9,454.1L291.9,454.1z"/>
			</g>
		</g>
		<g>
			<g>
				<path class="st1" d="M384.7,438.3c-4.2-10.2-35.6-39.3-69.8-64.6c-61.5-45.5-77.7-76.6-36.2-69.5
					C332.4,313.3,418,408.7,401,440.5C394.2,453.3,390.6,452.8,384.7,438.3L384.7,438.3z"/>
			</g>
		</g>
		<g>
			<g>
				<path class="st1" d="M278,756c-62.1-30.1-77.1-62.9-32.8-71.8c41.4-8.3,71.8,2.9,104,38.4C407.2,786.7,373.7,802.4,278,756z"/>
			</g>
		</g>
		<g>
			<g>
				<path class="st1" d="M483.2,286.5c-7.5-13-21.9-25-31.9-26.7c-29.4-5-83.7-78.8-69.7-94.7c29-33,74.3-3.6,114,73.8
					c25.2,49.2,32.8,76.6,20.6,74.5C505.6,311.6,490.8,299.5,483.2,286.5L483.2,286.5z"/>
			</g>
		</g>
	</g>
</g>
</svg>
