<?xml version="1.0" encoding="utf-8"?>
<!-- Generator: Adobe Illustrator 18.1.1, SVG Export Plug-In . SVG Version: 6.00 Build 0)  -->
<svg version="1.1" id="Layer_1" xmlns="http://www.w3.org/2000/svg" xmlns:xlink="http://www.w3.org/1999/xlink" x="0px" y="0px"
	 viewBox="0 0 25 25" enable-background="new 0 0 25 25" xml:space="preserve">
<path fill="#FFFFFF" d="M275,288.5c9.4,0.2,14.1,5.6,14.2,16.1c0,0.7,0,1.4-0.1,2.1c-0.4,8.8-7,21-19.8,36.2
	c-13.2,16-24.4,24-33.6,24.1c-5.7,0-10.5-4.9-14.3-14.7l-4-13.5l-3.9-13.4c-2.9-9.7-6.1-14.6-9.3-14.6c-0.7,0-3.3,1.4-7.6,4.2
	l-4.6-5.5l7.2-6l7.1-5.9c6.3-5.1,11.1-7.8,14.4-8.2c0.4-0.1,0.9-0.1,1.3-0.1c6.8,0,11,4.8,12.6,14.6c0.9,5.6,1.7,10.1,2.3,13.5
	c0.6,3.4,1.1,5.9,1.5,7.3c2.2,9.2,4.7,13.8,7.2,13.8c2,0,5.1-3,9.2-9c4.1-6.2,6.2-10.7,6.5-13.7c0.1-0.6,0.1-1.2,0.1-1.7
	c0-4-2.2-6-6.6-6c-2.2,0-4.6,0.5-7.2,1.4c4.6-14.1,13.3-21.2,26.4-21.2C274.3,288.5,274.7,288.5,275,288.5z"/>
<g>
	<ellipse fill="#FFFFFF" cx="3.5" cy="21.5" rx="3.3" ry="3.4"/>
	<path fill="#FFFFFF" d="M16.5,24.9h-4.8c0-6.5-5.1-11.7-11.7-11.7l0,0V8.4C9.2,8.4,16.5,15.8,16.5,24.9z"/>
	<path fill="#FFFFFF" d="M20,24.9C20,13.9,11.1,5,0.1,5V0c13.7,0,24.8,11.1,24.8,24.9h10z"/>
</g>
</svg>
