<?xml version="1.0" encoding="utf-8"?>
<!-- Generator: Adobe Illustrator 18.1.1, SVG Export Plug-In . SVG Version: 6.00 Build 0)  -->
<svg version="1.1" id="Layer_1" xmlns="http://www.w3.org/2000/svg" xmlns:xlink="http://www.w3.org/1999/xlink" x="0px" y="0px"
	 viewBox="0 0 25 25" enable-background="new 0 0 25 25" xml:space="preserve">
<path fill="#FFFFFF" d="M25,4.1c-0.9,0.4-1.9,0.7-2.9,0.9c1-0.7,1.9-1.8,2.3-3.1c-1,0.6-2.1,1.1-3.2,1.3c-0.9-1.1-2.3-1.8-3.7-1.8
	c-2.8,0-5.1,2.5-5.1,5.6c0,0.4,0.1,0.9,0.1,1.3c-4.3-0.2-8-2.4-10.6-5.8C1.3,3.3,1.1,4.3,1.1,5.3C1.1,7.3,2,9,3.3,10
	C2.5,9.9,1.7,9.7,1,9.3v0.1c0,2.7,1.8,5,4.1,5.4C4.7,14.9,4.3,15,3.8,15c-0.3,0-0.7,0-1-0.1c0.7,2.2,2.6,3.9,4.8,3.9
	c-1.8,1.5-4,2.4-6.4,2.4c-0.4,0-0.8,0-1.2-0.1c2.3,1.6,5,2.5,7.9,2.5c9.4,0,14.6-8.5,14.6-15.9c0-0.2,0-0.5,0-0.7
	C23.5,6.2,24.3,5.2,25,4.1z"/>
</svg>
