<?xml version="1.0" encoding="utf-8"?>
<!-- Generator: Adobe Illustrator 19.0.1, SVG Export Plug-In . SVG Version: 6.00 Build 0)  -->
<!DOCTYPE svg PUBLIC "-//W3C//DTD SVG 1.1//EN" "http://www.w3.org/Graphics/SVG/1.1/DTD/svg11.dtd">
<svg version="1.1" id="Layer_1" xmlns="http://www.w3.org/2000/svg" xmlns:xlink="http://www.w3.org/1999/xlink" x="0px" y="0px"
	 viewBox="0 0 133 43" style="enable-background:new 0 0 133 43;" xml:space="preserve">
<style type="text/css">
	.st0{fill:#00C1F3;}
	.st1{fill-rule:evenodd;clip-rule:evenodd;fill:#00C1F3;}
</style>
<g>
	<g>
		<path class="st0" d="M0,43c11.3,0,22.5,0,33.7,0c0-5.1,0-10.2,0-15.3c0-9.3,0-18.5,0-27.8C22.5,0,11.3,0,0,0C0,14.4,0,28.6,0,43z
			 M18.6,11.1c3.2,0,6.5,0,9.7,0c0,3,0,5.8,0,8.8c-3.2,0-6.5,0-9.7,0C18.6,16.9,18.6,14.1,18.6,11.1z M18.6,23c3.2,0,6.4,0,9.7,0
			c0,4.9,0,9.8,0,14.7c-0.9,0-1.7,0-2.7,0c0-1.1,0-2.3,0-3.6c-1.5,0-2.8,0-4.2,0c0,1.3,0,2.4,0,3.7c-1,0-1.9,0-2.8,0
			C18.6,32.8,18.6,28.1,18.6,23z M5.6,17c2.3,0,4.6,0,6.9,0c0-1.1,0-2.1,0-3.2c-2.3,0-4.6,0-6.9,0c0-2.9,0-5.6,0-8.4
			c3.2,0,6.4,0,9.7,0c0,0.9,0,1.8,0,2.8c-0.8,0-1.7,0-2.5,0c-1.3,0-2.5,0-3.8,0c-0.5,0-0.6,0.2-0.6,0.6c0,0.7,0,1.4,0,2.2
			c2.3,0,4.6,0,6.9,0c0,3,0,5.8,0,8.8c-3.2,0-6.4,0-9.7,0C5.6,18.9,5.6,18,5.6,17z M5.6,23.2c3.2,0,6.4,0,9.7,0c0,0.3,0,0.5,0,0.8
			c0,3.5,0,6.8,0,10.3c0,0.3-0.1,0.7-0.4,1c-0.7,0.7-1.4,1.4-2.1,2.1c-0.2,0.1-0.4,0.3-0.6,0.3c-2.2,0-4.4,0-6.6,0
			C5.6,32.8,5.6,28,5.6,23.2z M25.4,25.9c-1.4,0-2.8,0-4.1,0c0,1.8,0,3.5,0,5.3c1.4,0,2.7,0,4.1,0C25.4,29.3,25.4,27.7,25.4,25.9z
			 M12.5,26.6c0-0.2,0-0.4,0-0.6c-1.4,0-2.8,0-4.1,0c0,3,0,5.9,0,8.8c0,0,0.1,0,0.1,0.1c0.8,0,1.4,0,2.2,0c0.9,0,1.8-1,1.8-1.8
			C12.5,30.9,12.5,28.7,12.5,26.6z M21.5,17c1.3,0,2.7,0,4,0c0-1.1,0-2.1,0-3.1c-1.3,0-2.7,0-4,0C21.5,15,21.5,16.1,21.5,17z
			 M40.9,22c0.7,0.8,1.6,1.2,2.6,1.2c0.8,0,1.5-0.3,2.1-0.8c0.5-0.5,0.8-1.1,0.8-1.9c0-0.5-0.1-0.9-0.3-1.3
			c-0.2-0.3-0.6-0.7-0.9-0.9c-0.4-0.2-1-0.6-1.8-0.9c-0.9-0.3-1.5-0.7-1.8-1c-0.4-0.3-0.5-0.7-0.5-1.1c0-0.3,0.1-0.7,0.4-1
			c0.3-0.3,0.7-0.4,1.3-0.4c0.6,0,1.1,0.2,1.5,0.6c0.4,0.4,0.7,1,0.9,1.7h0.3v-2.5h-0.3c0,0.2-0.1,0.5-0.3,0.8
			c-0.4-0.4-0.8-0.6-1.1-0.8c-0.3-0.2-0.7-0.2-1.1-0.2c-0.8,0-1.4,0.3-1.8,0.7c-0.4,0.4-0.7,1-0.7,1.7c0,0.5,0.1,0.9,0.3,1.3
			c0.2,0.3,0.5,0.6,0.9,0.9c0.4,0.2,0.9,0.5,1.7,0.8c0.9,0.3,1.5,0.7,1.8,1c0.4,0.4,0.5,0.7,0.5,1.2s-0.3,0.9-0.6,1.3
			C44.5,22.8,44,23,43.3,23c-1.5,0-2.4-0.9-2.8-2.9h-0.3v3l0.4-0.2C40.6,22.6,40.8,22.2,40.9,22z M50.6,16.9c-0.9,0-1.6,0.2-2.3,0.9
			c-0.6,0.6-0.9,1.5-0.9,2.4c0,1,0.3,1.8,0.9,2.5c0.6,0.6,1.4,0.9,2.3,0.9s1.6-0.3,2.3-0.9c0.7-0.6,1-1.5,1-2.5c0-1-0.2-1.7-0.9-2.4
			C52.4,17.1,51.5,16.9,50.6,16.9z M52.2,22.4c-0.3,0.5-0.9,0.7-1.5,0.7c-0.7,0-1.2-0.2-1.5-0.7c-0.4-0.4-0.6-1.2-0.6-2.3
			c0-1.1,0.2-1.9,0.6-2.3c0.3-0.4,0.8-0.7,1.5-0.7c0.7,0,1.2,0.2,1.5,0.7c0.4,0.4,0.6,1.2,0.6,2.3C52.8,21.2,52.5,22,52.2,22.4z
			 M57.9,23.5c1.4,0,2.3-0.6,2.6-1.8h-0.3c-0.3,0.9-1,1.3-1.7,1.1c-0.8,0-1.4-0.2-1.7-0.8c-0.4-0.5-0.6-1.3-0.6-2.3
			c0-0.9,0.2-1.7,0.5-2.1c0.3-0.4,0.8-0.7,1.5-0.7c0.4,0,0.7,0.1,0.8,0.2c0.2,0.1,0.3,0.3,0.3,0.6c0,0.4,0.3,0.6,0.6,0.6
			c0.1,0,0.2,0,0.3-0.1c0.1,0,0.1-0.2,0.1-0.3c0-0.2-0.2-0.6-0.7-0.8c-0.5-0.2-0.9-0.3-1.5-0.3c-0.9,0-1.6,0.2-2.3,0.9
			c-0.7,0.7-1,1.5-1,2.5c0,1,0.3,1.8,0.9,2.4C56.2,23.2,57,23.5,57.9,23.5z M61.8,14.2c0.2,0.2,0.3,0.3,0.6,0.3
			c0.3,0,0.5-0.2,0.6-0.3c0.2-0.2,0.3-0.3,0.3-0.6c0-0.3-0.1-0.4-0.3-0.6c-0.2-0.2-0.3-0.3-0.6-0.3c-0.3,0-0.4,0.1-0.6,0.3
			c-0.2,0.2-0.3,0.4-0.3,0.6C61.5,13.9,61.6,14.1,61.8,14.2z M63.2,22.7c-0.1-0.1-0.2-0.3-0.2-0.4c0-0.2,0-0.6,0-1.3v-4.3l-0.2,0.2
			c-0.5,0.1-1.2,0.3-2.1,0.4v0.3h0.2c0.3,0,0.5-0.1,0.6,0c0.2,0,0.3,0.2,0.3,0.3c0.1,0.1,0.1,0.5,0.1,1.3v1.9c0,0.7,0,1.2,0,1.3
			c-0.1,0-0.1,0.2-0.2,0.3c-0.1,0.1-0.4,0.1-0.7,0.1h-0.3v0.3H64v-0.3h-0.1C63.5,22.8,63.3,22.8,63.2,22.7z M66.1,23
			c0.5,0.3,0.9,0.4,1.5,0.4c0.6,0,1.1-0.1,1.6-0.4c0.4-0.3,0.8-0.7,0.9-1.2h-0.3c-0.3,0.9-1,1.3-1.9,1.3c-0.7,0-1.2-0.2-1.5-0.8
			c-0.4-0.6-0.5-1.4-0.5-2.5c0-0.2,0-0.4,0-0.7h4.3c0-0.6-0.3-1.1-0.7-1.6c-0.5-0.5-1.1-0.8-1.9-0.8c-0.9,0-1.6,0.3-2.2,1
			c-0.5,0.6-0.8,1.4-0.8,2.4c0,0.7,0.1,1.3,0.4,1.8C65.3,22.3,65.7,22.7,66.1,23z M67.5,17.2c0.3,0,0.6,0,0.9,0.3
			c0.3,0.2,0.4,0.6,0.4,1c0,0.1,0,0.2,0,0.3l-3,0.2C66.1,17.8,66.7,17.2,67.5,17.2z M79.4,17.3c0.5,0,0.8,0.1,0.8,0.4
			c0,0-0.1,0.3-0.3,0.8L78.5,22l-1.9-3.6c-0.2-0.5-0.3-0.7-0.3-0.8c0-0.2,0.3-0.3,0.8-0.3v-0.4h-2.3h-0.5h-1.4v-1.9h-0.3
			c-0.1,0.6-0.4,1.1-0.7,1.4c-0.3,0.4-0.7,0.6-1.1,0.6v0.3h1v3.5c0,0.7,0,1.1,0.1,1.5c0.1,0.4,0.2,0.6,0.5,0.8
			c0.2,0.2,0.6,0.3,0.9,0.3c0.3,0,0.6-0.2,0.9-0.3c0.3-0.2,0.6-0.5,0.7-0.8l-0.3-0.1c-0.2,0.5-0.6,0.7-0.9,0.7s-0.5-0.1-0.6-0.2
			c-0.2-0.2-0.3-0.3-0.3-0.5c-0.1-0.2-0.1-0.5-0.1-1.1v-3.8h1.9l0-0.1c0.2,0,0.3,0.1,0.4,0.2c0.1,0.1,0.3,0.4,0.5,0.8l2.3,5
			l-0.6,1.5c-0.1,0.3-0.2,0.5-0.3,0.6c-0.1,0-0.3,0.2-0.6,0.3c-0.5,0.2-0.8,0.6-0.8,0.9c0,0.3,0.2,0.4,0.5,0.4c0.3,0,0.5,0,0.7-0.3
			c0.2-0.2,0.4-0.6,0.7-1.3l2.8-6.6c0.3-0.5,0.5-1,0.6-1.1c0.2-0.2,0.5-0.3,0.8-0.3v-0.3h-2.2V17.3z M84.5,23.3
			c0.5,0,0.9-0.2,1.4-0.6c0.5-0.4,1-1,1.3-1.7c0.4-0.7,0.5-1.4,0.5-2.2c0-0.6-0.1-1.1-0.4-1.5c-0.3-0.4-0.7-0.6-1.1-0.6
			c-0.5,0-0.9,0.3-1.5,0.7c-0.5,0.5-0.9,1.1-1.2,1.8c-0.3,0.7-0.4,1.4-0.4,2c0,0.8,0.1,1.4,0.3,1.6C83.7,23.2,84.1,23.3,84.5,23.3z
			 M84.6,19c0.5-1.2,1-1.8,1.7-1.8c0.3,0,0.5,0.1,0.6,0.3c0.2,0.2,0.2,0.5,0.2,0.8c0,0.6-0.3,1.6-0.7,2.9c-0.4,1.2-1,1.9-1.7,1.9
			c-0.3,0-0.5-0.1-0.6-0.3c-0.2-0.2-0.2-0.4-0.2-0.7C83.9,21.2,84.1,20.1,84.6,19z M88.8,21.5c-0.5,2-1,3.2-1.4,3.9
			c-0.4,0.7-0.9,1-1.5,1c-0.1,0-0.3,0-0.4-0.1c-0.2-0.1-0.2-0.2-0.2-0.3v-0.1c0-0.1,0-0.2,0-0.2c0-0.1,0-0.3-0.1-0.4
			c-0.1-0.2-0.3-0.2-0.4-0.2c0,0-0.2,0-0.3,0.1c-0.1,0.1-0.1,0.3-0.1,0.4c0,0.4,0.2,0.6,0.5,0.8c0.3,0.2,0.7,0.3,1.1,0.3
			c0.8,0,1.4-0.3,2.1-1c0.7-0.6,1.2-2,1.8-4l1.2-4.4h1.3l0.1-0.3l-1.7-0.1l0.2-0.8c0.3-1.4,0.7-2.3,1-2.6c0.3-0.4,0.7-0.5,1-0.5
			s0.5,0.1,0.6,0.4c0.3,0.4,0.5,0.6,0.7,0.6c0.3,0,0.4-0.1,0.4-0.4c0-0.2-0.1-0.4-0.3-0.6c-0.2-0.2-0.6-0.3-1-0.3
			c-1.5,0-2.6,1.3-3.3,3.8C90,16.8,90,16.9,90,16.9h-1.5l-0.1,0.3h1.5L88.8,21.5z M47.4,28.9c-0.8-0.5-1.9-0.7-3.3-0.7
			c-0.5,0-1.4,0.1-2.7,0.1l-1.6,0.1v0.2h0.5c0.5,0,0.8,0,0.9,0.1c0.2,0,0.3,0.2,0.3,0.4c0,0.2,0,0.7,0,1.5v4.7c0,0.7,0,1.3,0,1.5
			c0,0.2-0.2,0.4-0.3,0.5c-0.1,0.1-0.4,0.1-0.8,0.1H40v0.3h4.2c0.8,0,1.4,0,1.8,0c0.5,0,0.9-0.1,1.4-0.3c0.5-0.2,1-0.5,1.3-0.9
			c0.3-0.4,0.6-0.8,0.8-1.4c0.2-0.6,0.3-1.2,0.3-1.9c0-0.9-0.2-1.7-0.6-2.5C48.8,29.9,48.2,29.3,47.4,28.9z M47.4,35.9
			c-0.3,0.6-0.7,1-1.3,1.3c-0.5,0.2-1.2,0.3-2,0.3c-0.5,0-0.9,0-1.1-0.1c-0.2-0.2-0.3-0.3-0.3-0.6c0-0.3,0-0.9,0-1.8v-6.3
			c0.4-0.1,0.7-0.1,1,0.2c0.7,0,1.3,0.1,1.8,0.2c0.5,0.1,0.9,0.4,1.3,0.8c0.4,0.4,0.7,0.8,0.9,1.5c0.2,0.6,0.3,1.3,0.3,2.1
			C48,34.4,47.7,35.2,47.4,35.9z M52.6,28.8c0.2-0.2,0.3-0.3,0.3-0.6c0-0.3-0.1-0.4-0.3-0.6c-0.2-0.2-0.3-0.3-0.6-0.3
			c-0.3,0-0.4,0.1-0.6,0.3c-0.2,0.2-0.3,0.4-0.3,0.6c0,0.2,0.1,0.4,0.3,0.6c0.2,0.2,0.3,0.3,0.6,0.3C52.3,29.1,52.4,29,52.6,28.8z
			 M52.8,37.4c-0.1-0.1-0.2-0.3-0.2-0.4c0-0.2,0-0.6,0-1.3v-4.3l-0.2,0.2c-0.5,0.1-1.2,0.3-2.1,0.4v0.3h0.2c0.3,0,0.5-0.1,0.6,0
			c0.2,0,0.3,0.2,0.3,0.3c0.1,0.1,0.1,0.5,0.1,1.3v1.9c0,0.7,0,1.2,0,1.3c-0.1,0-0.1,0.2-0.2,0.3c-0.1,0.1-0.4,0.1-0.7,0.1h-0.3v0.3
			h3.3v-0.3h-0.1C53.1,37.5,52.9,37.5,52.8,37.4z M63.2,37.4C63.1,37.3,63,37.1,63,37c0-0.2,0-0.6,0-1.3v-4.3l-0.2,0.2
			c-0.4,0.1-1.1,0.3-1.8,0.4c0-0.1-0.1-0.3-0.2-0.4c-0.2-0.2-0.3-0.2-0.6-0.2c-0.5,0-0.9,0.3-1.3,0.8c-0.5-0.6-1.2-0.8-1.7-0.8
			c-0.7,0-1.3,0.3-1.8,0.7c-0.5,0.4-0.8,0.9-0.8,1.6c0,0.5,0,1,0.3,1.3c0.3,0.4,0.6,0.7,1.1,1c-1,0.2-1.4,0.6-1.4,1.3
			c0,0.3,0.2,0.6,0.5,0.8c0.3,0.2,1,0.4,2.1,0.4c1,0,1.7,0.1,2,0.3c0.4,0.3,0.6,0.6,0.6,1.1c0,0.4-0.2,0.8-0.6,1.1
			c-0.5,0.3-1,0.4-1.8,0.4c-0.9,0-1.5-0.1-1.9-0.4c-0.5-0.3-0.7-0.7-0.7-1.1c0-0.4,0.1-0.8,0.4-1.1c-0.1,0-0.1,0-0.2,0
			c-0.3,0-0.5,0.1-0.7,0.3c-0.2,0.2-0.3,0.5-0.3,0.8c0,0.6,0.2,1.1,0.8,1.4c0.6,0.4,1.4,0.6,2.3,0.6c1.1,0,1.8-0.2,2.4-0.6
			c0.5-0.5,0.8-1,0.8-1.7c0-0.5-0.1-1-0.4-1.3c-0.3-0.4-0.7-0.6-1.1-0.7c-0.4-0.2-1.1-0.3-1.9-0.3c-0.7-0.1-1.2-0.1-1.5-0.2
			c-0.2-0.1-0.3-0.2-0.3-0.4c0-0.4,0.5-0.7,1.6-0.7c1,0,1.8-0.4,2.2-0.8c0.5-0.5,0.7-1,0.7-1.6c0-0.5-0.1-0.9-0.4-1.3
			c0.3-0.3,0.5-0.4,0.7-0.4c0,0,0.2,0.1,0.3,0.3c0.1,0.2,0.3,0.3,0.4,0.3c0.2,0,0.3-0.1,0.3-0.2c0.3,0,0.5-0.1,0.6,0
			c0.2,0,0.3,0.2,0.3,0.3c0.1,0.1,0.1,0.5,0.1,1.3v1.9c0,0.7,0,1.2,0,1.3c-0.1,0-0.1,0.2-0.2,0.3c-0.1,0.1-0.4,0.1-0.7,0.1h-0.3v0.3
			H64v-0.3h-0.1C63.5,37.5,63.3,37.5,63.2,37.4z M57.9,35.2c-0.3,0.3-0.6,0.4-1,0.4c-0.4,0-0.7-0.1-1-0.4c-0.3-0.3-0.4-0.7-0.4-1.4
			c0-0.7,0.1-1.2,0.4-1.5c0.2-0.4,0.6-0.6,1-0.6c0.3,0,0.7,0.1,1,0.4c0.3,0.2,0.4,0.7,0.4,1.5S58.2,34.9,57.9,35.2z M63,28.8
			c0.2-0.2,0.3-0.3,0.3-0.6c0-0.3-0.1-0.4-0.3-0.6c-0.2-0.2-0.3-0.3-0.6-0.3c-0.3,0-0.4,0.1-0.6,0.3c-0.2,0.2-0.3,0.4-0.3,0.6
			c0,0.2,0.1,0.4,0.3,0.6c0.2,0.2,0.3,0.3,0.6,0.3C62.7,29.1,62.8,29,63,28.8z M68.2,32l0.3-0.5h-1.9v-1.9h-0.3
			c-0.1,0.6-0.4,1.1-0.7,1.4c-0.3,0.4-0.7,0.6-1.1,0.6V32h0.9v3.5c0,0.7,0.1,1.2,0.1,1.5c0.1,0.4,0.2,0.6,0.5,0.8
			c0.2,0.2,0.6,0.3,0.9,0.3c0.3,0,0.6-0.2,0.9-0.3c0.3-0.2,0.6-0.5,0.7-0.8l-0.3-0.1c-0.2,0.5-0.6,0.7-0.9,0.7
			c-0.3,0-0.5-0.1-0.6-0.2c-0.2-0.2-0.3-0.3-0.3-0.5c-0.1-0.2-0.1-0.5-0.1-1.1V32H68.2z M74.3,37.7c-0.2,0-0.4-0.2-0.4-0.3
			c-0.1-0.2-0.1-0.5-0.1-1.1v-2.5c0-0.5,0-0.9-0.1-1.2c-0.1-0.3-0.4-0.5-0.7-0.7c-0.4-0.2-0.8-0.3-1.5-0.3c-0.9,0-1.5,0.2-1.9,0.5
			C69.2,32.4,69,32.7,69,33c0,0.3,0.1,0.4,0.4,0.4c0.4,0,0.6-0.3,0.7-0.8c0.1-0.5,0.5-0.8,1.3-0.8c0.3,0,0.6,0.2,0.9,0.3
			c0.2,0.2,0.4,0.3,0.4,0.5c0.1,0.1,0.1,0.5,0.1,0.9v0.3l-1.2,0.5c-0.9,0.3-1.6,0.7-2.1,1.1c-0.5,0.4-0.8,0.9-0.8,1.4
			c0,0.3,0.1,0.6,0.4,0.9c0.3,0.2,0.7,0.3,1.1,0.3c0.3,0,0.6-0.2,1.1-0.3c0.5-0.1,0.9-0.5,1.4-0.8c0.1,0.4,0.2,0.6,0.4,0.8
			c0.2,0.2,0.5,0.3,0.8,0.3c0.9,0,1.3-0.5,1.3-1.3h-0.3C74.8,37.2,74.6,37.4,74.3,37.7z M72.8,36.5c-0.3,0.3-0.7,0.6-1,0.7
			c-0.3,0.2-0.5,0.3-0.8,0.3c-0.3,0-0.6-0.1-0.7-0.3C70.1,37,70,36.7,70,36.4c0-0.8,0.6-1.4,1.9-2l0.8-0.3h0.1V36.5z M77.6,37.4
			c-0.1-0.1-0.2-0.3-0.2-0.4c0-0.2,0-0.6,0-1.3v-8.2l-0.1-0.1c-0.1,0.1-0.4,0.2-0.8,0.2c-0.4,0.1-0.8,0.1-1.1,0.1v0.4
			c0.4,0,0.7,0.2,0.8,0.3c0.2,0.3,0.2,0.6,0.2,1.3v6.1c0,0.7,0,1.2,0,1.3c-0.1,0.1-0.1,0.2-0.3,0.3c-0.2,0.1-0.4,0.1-0.7,0.1h-0.2
			v0.3h3.3v-0.3h-0.2C77.9,37.5,77.7,37.5,77.6,37.4z M90.3,37l-0.4-1l-3.1-7.4h-0.3L83.8,35c-0.2,0.5-0.3,0.8-0.3,0.8
			c-0.4,0.7-0.6,1.1-0.8,1.4c-0.1,0.2-0.5,0.4-0.9,0.4v0.3h2.8v-0.3c-0.4,0-0.6-0.1-0.8-0.2c-0.2-0.2-0.3-0.4-0.3-0.7
			c0-0.3,0.3-0.9,0.6-1.7l0.3-0.6H88l0.7,1.8c0.2,0.5,0.3,0.8,0.3,0.9c0,0.2-0.1,0.3-0.3,0.4c-0.1,0.1-0.5,0.1-0.9,0.1v0.6h3.7v-0.3
			c-0.4-0.1-0.7-0.2-0.8-0.3C90.6,37.4,90.4,37.2,90.3,37z M84.5,34.1l1.7-4l1.7,4H84.5z M97.8,31.4c-0.5,0-0.9,0.3-1.3,0.8
			c-0.5-0.6-1.2-0.8-1.7-0.8c-0.7,0-1.3,0.3-1.8,0.7c-0.5,0.4-0.8,0.9-0.8,1.6c0,0.5,0,1,0.3,1.3c0.3,0.4,0.6,0.7,1.1,1
			c-1,0.2-1.4,0.6-1.4,1.3c0,0.3,0.2,0.6,0.5,0.8c0.3,0.2,1,0.4,2.1,0.4c1,0,1.7,0.1,2,0.3c0.4,0.3,0.6,0.6,0.6,1.1
			c0,0.4-0.2,0.8-0.6,1.1c-0.5,0.3-1,0.4-1.8,0.4c-0.9,0-1.5-0.1-1.9-0.4c-0.5-0.3-0.7-0.7-0.7-1.1c0-0.4,0.1-0.8,0.4-1.1
			c-0.1,0-0.1,0-0.2,0c-0.3,0-0.6,0.1-0.7,0.3c-0.2,0.2-0.3,0.5-0.3,0.8c0,0.6,0.2,1.1,0.8,1.4c0.6,0.4,1.4,0.6,2.3,0.6
			c1.1,0,1.8-0.2,2.4-0.6c0.5-0.5,0.8-1,0.8-1.7c0-0.5-0.1-1-0.4-1.3c-0.3-0.4-0.7-0.6-1.1-0.7c-0.4-0.2-1.1-0.3-1.9-0.3
			c-0.7-0.1-1.2-0.1-1.5-0.2c-0.2-0.1-0.3-0.2-0.3-0.4c0-0.4,0.5-0.7,1.6-0.7c1,0,1.8-0.4,2.2-0.8c0.5-0.5,0.7-1,0.7-1.6
			c0-0.5-0.1-0.9-0.4-1.3c0.3-0.3,0.5-0.4,0.7-0.4c0,0,0.2,0.1,0.3,0.3c0.1,0.2,0.3,0.3,0.4,0.3c0.3,0,0.4-0.2,0.4-0.5
			c0-0.1-0.1-0.3-0.2-0.4C98.2,31.4,98.1,31.4,97.8,31.4z M95.4,35.2c-0.3,0.3-0.6,0.4-1,0.4s-0.7-0.1-1-0.4
			c-0.3-0.3-0.4-0.7-0.4-1.4c0-0.7,0.2-1.2,0.4-1.5c0.2-0.4,0.6-0.6,1-0.6c0.3,0,0.7,0.1,1,0.4c0.3,0.2,0.4,0.7,0.4,1.5
			S95.7,34.9,95.4,35.2z M104.3,33.7c0-0.5-0.3-1.1-0.7-1.6c-0.5-0.5-1.1-0.8-1.9-0.8c-0.9,0-1.6,0.3-2.2,1
			c-0.5,0.6-0.8,1.4-0.8,2.4c0,0.7,0.1,1.3,0.4,1.8c0.3,0.4,0.7,0.8,1.1,1.1c0.5,0.3,0.9,0.4,1.5,0.4s1.1-0.1,1.6-0.4
			c0.4-0.3,0.8-0.7,0.9-1.2h-0.3c-0.3,0.9-1,1.3-1.9,1.3c-0.7,0-1.2-0.2-1.5-0.8c-0.4-0.6-0.5-1.4-0.5-2.5c0-0.2,0-0.4,0-0.7H104.3z
			 M100,33.6c0.2-1.2,0.8-1.8,1.7-1.8c0.3,0,0.6,0,0.9,0.3c0.3,0.2,0.4,0.6,0.4,1c0,0.1,0,0.2,0,0.3L100,33.6z M111.4,37.1
			c0-0.2,0-0.6,0-1.3v-1.9c0-0.5,0-1-0.1-1.3c-0.1-0.4-0.3-0.6-0.6-0.8c-0.4-0.2-0.8-0.3-1.3-0.3s-0.9,0.1-1.3,0.3
			c-0.3,0.1-0.8,0.5-1.1,0.9c0-0.5-0.1-1-0.2-1.3h-0.2c-0.6,0.1-1.1,0.3-1.4,0.5v0.3c0.4,0,0.7,0,0.8,0.1c0.2,0,0.3,0.2,0.3,0.3
			c0,0.2,0,0.5,0,1.3v1.8c0,0.7,0,1.2,0,1.3c-0.1,0.1-0.1,0.2-0.3,0.3c-0.2,0.1-0.5,0.1-0.8,0.1v0.3h3.1v-0.3c-0.4,0-0.7,0-0.8-0.1
			c-0.2,0-0.3-0.2-0.3-0.3c0-0.2,0-0.6,0-1.3v-2.5c0.2-0.4,0.6-0.8,0.9-1c0.2-0.2,0.7-0.3,1-0.3c0.3,0,0.6,0.2,0.8,0.3
			c0.2,0.2,0.4,0.4,0.4,0.6s0,0.5,0,1v2c0,0.7,0,1.2,0,1.3c0,0-0.1,0.2-0.2,0.3c-0.1,0.1-0.4,0.1-0.7,0.1h-0.1v0.3h3.2v-0.3
			c-0.4,0-0.7,0-0.8-0.1C111.5,37.4,111.4,37.2,111.4,37.1z M116.6,37.4c-0.8,0-1.4-0.2-1.7-0.8c-0.4-0.5-0.6-1.3-0.6-2.3
			c0-0.9,0.2-1.7,0.5-2.1c0.3-0.4,0.8-0.7,1.5-0.7c0.4,0,0.6,0.1,0.8,0.2c0.2,0.1,0.3,0.3,0.3,0.6c0,0.4,0.3,0.6,0.6,0.6
			c0.1,0,0.2,0,0.3-0.1c0.1,0,0.1-0.2,0.1-0.3c0-0.2-0.3-0.5-0.7-0.8c-0.5-0.2-0.9-0.3-1.5-0.3c-0.9,0-1.6,0.2-2.3,0.9
			c-0.7,0.7-1,1.5-1,2.5s0.3,1.8,0.9,2.4c0.5,0.6,1.3,0.9,2.2,0.9c1.4,0,2.3-0.6,2.6-1.8h-0.3C117.9,37.2,117.3,37.7,116.6,37.4z
			 M119.9,28.8c0.2,0.2,0.3,0.3,0.6,0.3c0.3,0,0.4-0.1,0.6-0.3c0.2-0.2,0.3-0.3,0.3-0.6c0-0.3-0.1-0.4-0.3-0.6
			c-0.2-0.2-0.3-0.3-0.6-0.3c-0.3,0-0.4,0.1-0.6,0.3c-0.2,0.2-0.3,0.4-0.3,0.6C119.6,28.4,119.6,28.6,119.9,28.8z M121.2,37.4
			c-0.1-0.1-0.2-0.3-0.2-0.4c0-0.2,0-0.6,0-1.3v-4.3l-0.2,0.2c-0.5,0.1-1.2,0.3-2.1,0.4v0.3h0.2c0.3,0,0.5,0,0.6,0
			c0.2,0,0.3,0.2,0.3,0.3c0.1,0.1,0.1,0.5,0.1,1.3v1.9c0,0.7,0,1.2,0,1.3c-0.1,0-0.1,0.2-0.2,0.3c-0.1,0.1-0.4,0.1-0.7,0.1h-0.3v0.3
			h3.3v-0.3h-0.1C121.5,37.5,121.3,37.5,121.2,37.4z M128.3,33.7c0-0.5-0.3-1.1-0.7-1.6c-0.5-0.5-1.1-0.8-1.9-0.8
			c-0.9,0-1.6,0.3-2.2,1c-0.5,0.6-0.8,1.4-0.8,2.4c0,0.7,0.1,1.3,0.4,1.8c0.3,0.4,0.7,0.8,1.1,1.1c0.5,0.3,0.9,0.4,1.5,0.4
			c0.6,0,1.1-0.1,1.6-0.4c0.4-0.3,0.8-0.7,0.9-1.2h-0.3c-0.3,0.9-1,1.3-1.9,1.3c-0.7,0-1.2-0.2-1.5-0.8c-0.4-0.6-0.5-1.4-0.5-2.5
			c0-0.2,0-0.4,0-0.7H128.3z M125.7,31.8c0.3,0,0.6,0,0.9,0.3c0.3,0.2,0.4,0.6,0.4,1c0,0.1,0,0.2,0,0.3l-3,0.2
			C124.2,32.4,124.8,31.8,125.7,31.8z M132.7,35.2c-0.2-0.3-0.8-0.7-1.6-1.1c-0.5-0.3-0.9-0.5-1.1-0.7c-0.2-0.2-0.3-0.4-0.3-0.7
			c0-0.3,0.1-0.5,0.3-0.7c0.2-0.2,0.5-0.3,0.8-0.3c0.3,0,0.7,0.2,1,0.5c0.3,0.4,0.5,0.8,0.6,1.2h0.3v-2h-0.3
			c-0.1,0.3-0.2,0.5-0.3,0.6c-0.3-0.5-0.7-0.7-1.3-0.7c-0.6,0-1,0.3-1.3,0.6c-0.3,0.4-0.4,0.8-0.4,1.2c0,0.4,0.1,0.8,0.4,1.1
			c0.2,0.3,0.6,0.6,1.3,0.9c0.6,0.4,1,0.6,1.2,0.8c0.2,0.2,0.3,0.5,0.3,0.8c0,0.3-0.1,0.5-0.3,0.8c-0.1,0.2-0.4,0.3-0.8,0.3
			c-0.9,0-1.5-0.6-1.8-1.8h-0.3v2H129v0.1h0.3c0-0.4,0.2-0.6,0.3-0.7c0.4,0.4,0.9,0.7,1.5,0.7c0.5,0,0.9-0.2,1.3-0.5
			c0.4-0.3,0.6-0.7,0.6-1.3C133,36,132.9,35.6,132.7,35.2z"/>
	</g>
</g>
</svg>
