<?xml version="1.0" encoding="utf-8"?>
<!-- Generator: Adobe Illustrator 19.0.1, SVG Export Plug-In . SVG Version: 6.00 Build 0)  -->
<!DOCTYPE svg PUBLIC "-//W3C//DTD SVG 1.1//EN" "http://www.w3.org/Graphics/SVG/1.1/DTD/svg11.dtd">
<svg version="1.1" id="Layer_1" xmlns="http://www.w3.org/2000/svg" xmlns:xlink="http://www.w3.org/1999/xlink" x="0px" y="0px"
	 viewBox="0 0 104 44" style="enable-background:new 0 0 104 44;" xml:space="preserve">
<style type="text/css">
	.st0{fill:#00C1F3;}
	.st1{fill-rule:evenodd;clip-rule:evenodd;fill:#00C1F3;}
</style>
<g>
	<g>
		<path class="st0" d="M60,17.6h2.5l0.5,2.7h1.8L62,7.5h-1.5l-2.8,12.8h1.8L60,17.6z M61.3,11.1l0.9,4.7h-1.8L61.3,11.1z M65.8,17.3
			c0,0.6,0,1,0.2,1.4c0.2,0.3,0.4,0.7,0.7,0.9c0.3,0.3,0.7,0.4,1,0.6c0.4,0.2,0.8,0.2,1.1,0.2c0.4,0,0.8,0,1.1-0.2
			c0.4-0.2,0.7-0.4,1-0.6c0.3-0.2,0.5-0.5,0.7-0.9c0.1-0.4,0.2-0.9,0.2-1.4v-4h-3.3v1.6h1.4v2.4c0,0.5-0.1,0.8-0.3,1
			c-0.2,0.2-0.6,0.3-0.9,0.3c-0.3,0-0.6-0.1-0.8-0.3c-0.2-0.3-0.3-0.6-0.3-1v-6.8c0-0.5,0.1-0.8,0.3-1c0.2-0.2,0.4-0.3,0.8-0.3
			c0.4,0,0.7,0.1,0.9,0.3c0.2,0.3,0.3,0.6,0.3,1v0.6h1.7v-0.6c0-0.5,0-0.9-0.2-1.3c-0.2-0.4-0.4-0.7-0.7-1c-0.3-0.3-0.6-0.4-1-0.6
			S69,7.4,68.6,7.4c-0.4,0-0.8,0-1.1,0.2c-0.4,0.2-0.7,0.4-1,0.6c-0.3,0.3-0.5,0.6-0.7,1c-0.1,0.4-0.2,0.8-0.2,1.3l0.2-0.1V17.3z
			 M78.6,18.4H75v-3.7h3.1v-1.7H75V9.2h3.6V7.5h-5.4v12.7h5.4V18.4z M81.6,12.6l2.8,7.7h1.7V7.5h-1.8v7.8l-2.8-7.8h-1.7v12.8h1.8
			V12.6z M91.7,20.1c0.4-0.1,0.6-0.4,0.9-0.6c0.3-0.2,0.4-0.6,0.6-0.9c0.1-0.3,0.2-0.7,0.2-1.1v-0.9h-1.8v0.6c0,0.2-0.1,0.4-0.1,0.6
			c-0.1,0.2-0.2,0.3-0.3,0.4c-0.2,0.1-0.2,0.2-0.4,0.2c-0.2,0-0.3,0-0.4,0c-0.4,0-0.7-0.2-0.8-0.4s-0.2-0.6-0.2-0.9v-6.6
			c0-0.4,0-0.7,0.2-1c0.2-0.2,0.5-0.4,0.9-0.4c0.3,0,0.6,0.2,0.8,0.4c0.2,0.3,0.3,0.6,0.3,0.9V11h1.8v-0.7c0-0.4,0-0.9-0.2-1.2
			c-0.2-0.3-0.4-0.7-0.6-0.9c-0.3-0.3-0.6-0.4-0.9-0.6c-0.3-0.1-0.7-0.2-1.1-0.2c-0.5,0-0.9,0-1.2,0.2c-0.3,0.2-0.7,0.4-0.9,0.6
			c-0.3,0.3-0.4,0.6-0.6,0.9c-0.2,0.3-0.2,0.7-0.2,1.1v7.1c0,0.6,0.1,1,0.3,1.4c0.2,0.4,0.5,0.7,0.7,0.9c0.2,0.3,0.6,0.4,0.9,0.5
			c0.3,0.2,0.7,0.2,1,0.2C91,20.3,91.4,20.3,91.7,20.1z M98.5,20.3v-5.5l2.5-7.4h-2l-1.5,5.1L96,7.5h-1.9l2.5,7.4h0.1v5.5H98.5z
			 M60.5,22.2l-2.8,12.8h1.8l0.5-2.7h2.5l0.5,2.7h1.8L62,22.2H60.5z M60.4,30.5l0.9-4.7l0.9,4.7H60.4z M72.8,22.2l-0.9,8.4l-1.5-8.4
			H69l-1.4,8.2l-0.9-8.2h-1.9l1.9,12.8h1.7l1.4-8.4l1.4,8.4h1.7l1.8-12.8H72.8z M77.4,22.2l-2.9,12.8h1.8l0.6-2.7h2.5l0.5,2.7h1.8
			l-2.8-12.8H77.4z M77.3,30.5l0.9-4.7l0.9,4.7H77.3z M88.7,27.9c0.2-0.5,0.3-1.2,0.3-1.9c0-2.5-1.1-3.7-3.2-3.7h-2.9v12.8h1.9v-5.5
			h1.1l1.7,5.5h1.9l-2-5.9C88.1,28.8,88.5,28.4,88.7,27.9z M87.1,26c0,0.3,0,0.6,0,0.8s-0.1,0.4-0.2,0.6c-0.1,0.2-0.2,0.3-0.4,0.4
			C86.3,28,86,28,85.7,28h-1v-4h0.9c0.3,0,0.6,0.1,0.8,0.2c0.3,0.1,0.4,0.2,0.5,0.4c0.1,0.2,0.2,0.4,0.2,0.6S87.1,25.7,87.1,26z
			 M93.2,22.2h-2.7L90.6,35h2.5c1.1,0,1.9-0.3,2.5-0.8c0.5-0.5,0.8-1.4,0.8-2.6v-6c0-1-0.3-1.8-0.8-2.4C95,22.5,94.2,22.2,93.2,22.2
			z M94.6,31.7c0,0.6-0.1,1-0.3,1.2c-0.2,0.2-0.6,0.4-1.1,0.4h-0.8v-9.3h0.8c0.5,0,0.9,0.1,1.1,0.4c0.2,0.2,0.3,0.6,0.3,1.1V31.7z
			 M104,25.9v-1.1c0-0.3-0.1-0.7-0.2-1c-0.1-0.3-0.4-0.6-0.6-0.9c-0.2-0.2-0.5-0.4-0.9-0.6c-0.4-0.1-0.8-0.2-1.2-0.2
			c-0.6,0-1,0.1-1.4,0.3c-0.4,0.2-0.8,0.4-1,0.7c-0.3,0.3-0.4,0.7-0.6,1.1c-0.2,0.4-0.2,0.8-0.2,1.3c0,0.8,0.2,1.5,0.4,2
			c0.3,0.6,0.8,1,1.6,1.3l1.3,0.5c0.2,0,0.3,0.1,0.5,0.2c0.1,0.1,0.2,0.1,0.3,0.3c0.1,0.1,0.2,0.3,0.2,0.5c0,0.2,0,0.5,0,0.8
			c0,0.3,0,0.5,0,0.8c0,0.3-0.1,0.4-0.2,0.6c-0.1,0.2-0.2,0.3-0.4,0.4c-0.2,0.2-0.4,0.2-0.7,0.2c-0.5,0-0.8-0.2-1-0.4
			c-0.2-0.3-0.3-0.6-0.3-0.9v-0.6h-1.8v0.7c0,0.4,0,0.9,0.2,1.2c0.1,0.3,0.3,0.7,0.6,0.9c0.3,0.3,0.6,0.4,1,0.6
			c0.4,0.1,0.8,0.2,1.2,0.2c0.6,0,1.1-0.1,1.5-0.3c0.5-0.2,0.8-0.5,1-0.8c0.2-0.4,0.4-0.8,0.5-1.2c0.2-0.5,0.2-1,0.2-1.5
			c0-0.4,0-0.9,0-1.2c-0.1-0.3-0.1-0.6-0.3-0.9c-0.2-0.3-0.4-0.5-0.6-0.7c-0.3-0.2-0.6-0.3-1-0.5l-1.4-0.5c-0.2-0.1-0.3-0.2-0.5-0.3
			c-0.1-0.1-0.3-0.1-0.3-0.3c-0.2-0.1-0.2-0.2-0.2-0.4c0-0.2,0-0.4,0-0.6c0-0.2,0-0.4,0-0.6c0-0.2,0.1-0.3,0.2-0.5
			c0.1-0.1,0.2-0.2,0.4-0.3c0.2-0.2,0.4-0.2,0.6-0.2c0.5,0,0.8,0.1,1,0.4c0.2,0.3,0.3,0.7,0.3,1.1v0.4H104z M37.9,24
			c0.7,0.2,1.2-0.2,1.3-0.9c0.1-0.6,0.1-1.3,0.2-2c0-0.2,0-0.5,0-0.8c0-0.5,0-1-0.2-1.4c-0.1-0.5-0.4-0.7-0.9-0.7
			c-0.4,0-0.8,0.2-1,0.7c0,0.2-0.2,0.3-0.2,0.5c0,1.1,0,2.3,0,3.4c0,0.3,0.1,0.6,0.2,0.8C37.5,23.7,37.7,23.9,37.9,24z M29.3,16.7
			c-0.4,1.7-0.8,3.3-1.3,5.3c0.8,0,1.7,0,2.5,0C30.1,20,29.7,18.4,29.3,16.7z M36,28.1c-0.3,1,0.2,2.1,1.1,2.5
			c0.9,0.3,1.8,0.3,2.7,0c0.5-0.2,1-0.5,1.3-1c0.3-0.5,0.2-1.5-0.2-1.9c-0.4-0.2-0.8-0.4-1.1-0.4c-0.5-0.1-1.1-0.2-1.7-0.2
			c-0.2,0-0.5,0-0.7,0C36.8,27.1,36.1,27.5,36,28.1z M47,21.5c0-0.5,0-1.1,0-1.7c0-0.4-0.1-0.7-0.2-1.1c-0.2-0.5-0.4-0.7-1-0.6
			c-0.5,0-0.8,0.1-1,0.6c-0.3,1-0.2,1.9-0.2,2.9C45.4,21.5,46.2,21.5,47,21.5z M0,44h55.3V0H0V44z M45,17.6c1.8-0.5,3.4,0.3,4,2.2
			c0.2,0.7,0.2,1.6,0.2,2.1c-1.5,0-3,0-4.6,0c0,0.5,0,1,0,1.4c0,0.6,0.1,1.3,0.2,1.9c0.1,0.6,0.3,1.3,1,1.4c0.8,0.2,1.5,0,2.1-0.6
			c0.5-0.5,0.6-1.4,0.6-2.1c0-0.1,0,0,0-0.5c0.2,0,0.3,0,0.5,0c0.4,2-1.1,3.8-3,3.7c-2.4-0.2-3.5-1.8-3.7-3.6
			c-0.2-1.4-0.1-2.7,0.5-4C43.2,18.6,43.9,17.9,45,17.6z M36,18.6c0.8-1,2.6-1.2,4-0.5c0.1-0.2,0.2-0.3,0.2-0.5
			c0.4-0.6,1.3-0.8,2-0.4c0.6,0.3,1,1.2,0.7,1.9c-0.2,0.5-0.7,0.7-1.2,0.6c-0.5-0.2-0.7-0.7-0.5-1.2c0-0.1,0.1-0.2,0.1-0.2
			c0-0.2,0-0.4-0.1-0.5c-0.1-0.1-0.3-0.2-0.5-0.1c-0.4,0.2-0.5,0.7-0.2,1c1.3,1.3,1.2,3.5,0.5,4.8c-0.9,1.5-3.4,1.8-4.8,0.6
			c0,0-0.1-0.1-0.2-0.2c-0.2,0.2-0.3,0.3-0.4,0.4c-0.2,0.3-0.1,0.7,0.2,0.8c0.2,0.1,0.4,0.2,0.7,0.2c0.8,0,1.7,0,2.6,0.1
			c0.5,0,1.1,0.1,1.5,0.3c1.2,0.1,1.8,1.2,1.7,2.3c-0.1,1.5-0.9,2.4-2.3,2.9c-1.4,0.4-2.8,0.4-4.2-0.2c-0.2-0.1-0.5-0.3-0.7-0.4
			c-0.9-0.7-0.8-2.1,0.2-2.8c0.3-0.2,0.7-0.3,1.1-0.5c-0.9-0.2-1.5-0.7-1.7-1.7c-0.2-0.7,0.2-1.3,1.1-1.9C34.9,21.7,34.8,20,36,18.6
			z M25.3,26.7c1,0,1-0.5,1.2-1.1c0.9-3.9,1.9-7.9,2.9-11.7c0-0.1,0.1-0.4,0.1-0.4c0.5,0,1.1,0,1.7,0c0.2,0.5,0.3,1.5,0.5,2.2
			c0.8,3.4,1.5,6.8,2.3,10.2c0.2,0.6,0.6,0.9,1.1,0.8c0,0.2,0,0.2,0,0.2c-1.5,0-3,0-5,0c0,0,0,0,0-0.2c0.5,0,0.5,0,0.7,0
			c0.6,0.1,0.8-0.1,0.7-0.5c-0.2-0.9-0.4-1.8-0.6-2.7c0-0.3-0.2-0.9-0.2-0.9c-0.9,0-1.8,0-2.8,0c-0.2,0.5-0.3,1.2-0.4,1.7
			c-0.2,0.5-0.2,1.1-0.3,1.6c-0.1,0.6,0.2,0.8,0.7,0.8c0.2,0,0.4,0,0.4,0c0,0.2,0,0.2,0,0.2c-1,0-2,0-3,0
			C25.3,26.9,25.3,26.9,25.3,26.7z M16.2,18.9c0.4-0.6,1-1,1.7-1.2c0.9-0.2,1.8,0,2.3,0.9c0-0.3,0-0.5,0-0.8c0-1,0-2,0-3
			c0-0.7-0.2-0.8-0.8-0.8c-0.2,0-0.1,0-0.6,0c0-0.2,0-0.5,0-0.5c1.5,0,2.5,0,3.5,0c0,0,0,0.4,0,0.5c0,3.9,0,7.8,0,11.7
			c0,1.1,0.2,1,1,1c0.1,0,0.4,0,0.4,0c0.1,0.2,0.1,0.3,0.1,0.3c-1,0-2.5,0-3.5,0c0-0.5,0-0.4,0-0.8h-0.1c-0.4,1.1-1.6,1.4-2.7,0.9
			c-0.7-0.3-1.3-0.8-1.6-1.5C14.8,23.4,14.9,21,16.2,18.9z M5.8,26.8c1,0,1.2-0.2,1.5-1.2c0.9-3.8,1.9-7.7,2.8-11.5
			c0-0.1,0-0.2,0.1-0.3c0.5,0,1,0,1.6,0L12,14c0.5,2.1,1,4.1,1.5,6.3c0.4,1.9,0.9,3.8,1.3,5.8c0.2,0.7,0.4,0.8,1.1,0.8h0.2
			c0.2,0.1,0.2,0.2,0.2,0.2c-1.5,0-3.5,0-5,0c0,0,0,0,0-0.2c0,0,0.4,0,0.6,0c0.4,0,0.6-0.2,0.5-0.6c-0.2-0.7-0.3-1.4-0.5-2.1
			c-0.1-0.5-0.2-1-0.3-1.5c-0.9,0-1.8,0-2.8,0c-0.2,1-0.5,2.2-0.8,3.3c-0.2,0.6,0.2,0.9,0.8,0.9c0.2,0,0,0,0.5,0c0,0.2,0,0.2,0,0.2
			c-1.5,0-2.5,0-3.5,0C5.8,27,5.8,26.9,5.8,26.8z M10.2,16.7c-0.4,1.7-0.8,3.3-1.3,5.3c0.8,0,1.7,0,2.5,0
			C11.1,20,10.7,18.4,10.2,16.7z M18,26.2c0,0.4,0.4,0.7,0.8,0.7c0.4,0,0.8-0.2,1-0.5c0.2-0.2,0.2-0.5,0.3-0.8
			c0-0.9,0.1-1.9,0.2-2.9c-0.2-0.8-0.1-1.6-0.2-2.4c0-0.5-0.2-1.1-0.4-1.5c-0.2-0.3-0.6-0.5-1-0.4c-0.4,0-0.7,0.3-0.8,0.7
			c-0.1,0.3-0.2,0.7-0.2,1.1c0,1.1-0.1,2.3,0,3.4C17.7,24.4,17.9,25.3,18,26.2z"/>
	</g>
</g>
</svg>
