<?xml version="1.0" encoding="utf-8"?>
<!-- Generator: Adobe Illustrator 19.0.1, SVG Export Plug-In . SVG Version: 6.00 Build 0)  -->
<!DOCTYPE svg PUBLIC "-//W3C//DTD SVG 1.1//EN" "http://www.w3.org/Graphics/SVG/1.1/DTD/svg11.dtd">
<svg version="1.1" id="Layer_1" xmlns="http://www.w3.org/2000/svg" xmlns:xlink="http://www.w3.org/1999/xlink" x="0px" y="0px"
	 viewBox="0 0 135 38.9" style="enable-background:new 0 0 135 38.9;" xml:space="preserve">
<style type="text/css">
	.st0{fill:#00C1F3;}
	.st1{fill-rule:evenodd;clip-rule:evenodd;fill:#00C1F3;}
</style>
<g>
	<g>
		<path class="st0" d="M15,0C6.7,0,0,6.6,0,15.1s6.8,15.1,15,15.1c8.2,0,15-6.9,15-15.1C29.9,6.8,23.2-0.1,15,0z M14.9,26.2
			C8.9,26.1,3.9,21.3,4,14.7c0.1-5.9,4.8-10.9,11-10.9s11.2,4.9,11.1,11.5C26,21.3,21.3,26.3,14.9,26.2z M6.1,19.9
			c0.1,0.1,0.1,0.2,0.2,0.2C6.3,20.1,6.2,20,6.1,19.9C6.1,19.9,6.1,19.9,6.1,19.9z M6.1,19.9C6.1,19.9,6,19.9,6.1,19.9
			C6,19.9,6,20,6.1,19.9z M23.8,20c-0.4-0.3-0.7-0.5-1.1-0.7c-0.2-0.1-0.3,0-0.4,0.1c-0.7,0.8-1.4,1.6-2.1,2.3
			c-1,0.9-2.3,1.5-3.6,1.9C15.3,24,14,24,12.6,23.8c-2.5-0.4-4.5-1.6-6.2-3.5c0,0-0.1-0.1-0.1-0.1c0.7,1.1,1.5,2.1,2.5,3
			c1.8,1.5,3.8,2.2,6.1,2.2c1.9,0.1,3.7-0.5,5.3-1.5c1.4-0.8,2.6-2.1,3.6-3.4C24,20.2,24,20.1,23.8,20z M22.3,14.5
			c-0.2,3.2-1.9,5.4-4.6,7.1C15,23.1,12,23,9.1,22c0.6,0.3,1.1,0.6,1.7,0.8c2.1,0.7,4.2,1,6.4,0.1c2-0.8,3.5-2.2,4.7-4
			c0.2-0.2,0.4-0.2,0.6-0.1c0.5,0.4,1.1,0.6,1.6,1c0.9-1.7,1.4-3.4,1.1-5.2C24.3,14.5,23.3,14.5,22.3,14.5z M20.1,11.7
			c0.7,1,0.8,2.2,0.6,3.3c-0.5,2.7-2,4.8-4.4,6.1c-0.7,0.5-1.6,0.6-2.4,1c1.8-0.2,3.5-0.9,4.9-2c2-1.6,2.9-3.8,2.9-6.4
			c1.3,0,2.5,0,3.7,0c-0.3-1.8-1-3.3-2.1-4.7c-1.1,0.7-2.3,1.5-3.5,2.2C19.9,11.3,20,11.4,20.1,11.7z M88.9,29c-1,0-1.8,0.1-2.4,0.2
			l0.2,9.7h1.2v-3.8c0.3,0,0.6,0,1,0c1.2,0,2.3-0.4,2.9-1.1c0.5-0.5,0.7-1.2,0.7-2.1c0-0.9-0.4-1.6-0.9-2C91,29.3,90.1,29,88.9,29z
			 M88.7,33.9c-0.4,0-0.8-0.1-1-0.1v-3.7c0.1-0.1,0.6-0.1,1.1-0.1c1.4,0,2.3,0.6,2.3,1.9C91.1,33.2,90.2,33.9,88.7,33.9z M98.6,34.5
			c0-1.4-0.5-2.8-2.6-2.8c-0.9,0-1.8,0.2-2.3,0.6l0.3,0.8c0.5-0.3,1.2-0.5,1.8-0.5c1.5,0,1.6,1.1,1.6,1.6v0.1
			c-2.6,0-4.1,0.9-4.1,2.4c0,1,0.8,2,2.1,2c1,0,1.7-0.5,2.1-1l0.1,0.9h1.1c-0.1-0.5-0.1-1-0.1-1.6V34.5z M97.5,36.4
			c0,0.2,0,0.3,0,0.4c-0.2,0.6-0.8,1.1-1.7,1.1c-0.7,0-1.2-0.4-1.2-1.1c0-1.4,1.6-1.6,2.9-1.6V36.4z M101.7,33v-1.3h-1.1
			c0,0.6,0,1.3,0,2.1l0.1,4.5h1.2v-3.6c0-0.1,0-0.4,0-0.5c0.2-1,0.8-1.6,1.7-1.6c0.2,0,0.3,0,0.4,0v-1.1c-0.2,0-0.3,0-0.4,0
			C102.8,31.5,102,32.1,101.7,33z M107.1,29.8l-1.2,0.3v1.6h-1.1v1h1.1v3.7c0,0.8,0.1,1.4,0.4,1.9c0.2,0.3,0.8,0.5,1.3,0.5
			c0.5,0,0.9-0.1,1.1-0.2v-1c-0.2,0.1-0.4,0.1-0.7,0.1c-0.7,0-0.9-0.4-0.9-1.3v-3.7h1.8v-0.9h-1.8V29.8z M113.6,31.6
			c-1.2,0-1.9,0.6-2.3,1.2v-1.1h-1.1c0,0.7,0,1.2,0,1.9v4.9h1.2v-4.1c0-0.1,0.1-0.4,0.1-0.5c0.2-0.7,0.9-1.2,1.7-1.2
			c1.2,0,1.6,0.9,1.6,2v3.9h1.2v-4.1C116,32.1,114.5,31.6,113.6,31.6z M120.7,31.6c-2,0-3.2,1.6-3.3,3.6c0,2,1.3,3.4,3.4,3.4
			c1.1,0,1.9-0.2,2.3-0.4l-0.2-0.9c-0.4,0.3-1,0.4-1.9,0.4c-1.2,0-2.3-0.7-2.3-2.4h4.8c0-0.1,0-0.3,0-0.5
			C123.6,33.6,122.9,31.6,120.7,31.6z M118.7,34.6c0.1-0.9,0.7-2,1.9-2c1.4,0,1.7,1.3,1.7,2H118.7z M126.2,33v-1.3h-1.1
			c0,0.6,0,1.3,0,2.1l0.1,4.5h1.2v-3.6c0-0.1,0-0.4,0-0.5c0.2-1,0.8-1.6,1.7-1.6c0.2,0,0.3,0,0.4,0v-1.1c-0.2,0-0.3,0-0.4,0
			C127.3,31.5,126.5,32.1,126.2,33z M132.2,34.7c-0.9-0.3-1.3-0.6-1.3-1.1c0-0.6,0.4-1,1.1-1c0.7,0,1.2,0.3,1.4,0.4l0.3-0.9
			c-0.4-0.2-1-0.4-1.7-0.4c-1.5,0-2.4,0.9-2.4,2c0,0.9,0.6,1.6,1.8,2c0.8,0.3,1.2,0.6,1.2,1.2c0,0.6-0.4,1-1.3,1
			c-0.6,0-1.2-0.3-1.6-0.5l-0.2,1c0.4,0.3,1.2,0.5,1.9,0.5c1.7,0,2.6-0.9,2.6-2.1C134,35.7,133.3,35.1,132.2,34.7z M129.5,21.5
			c-0.2-0.5-0.5-0.7-1-0.7c-1.2,0-2.6,0.1-3.8,0.1c-2.1,0-4-2.2-3.6-4.4c0.2,0,0.4,0,0.7,0c2.8,0,5.5,0,8.3,0c0.9,0,1-0.2,1-1
			c0-0.4-0.1-0.9-0.1-1.3c-0.3-2.4-1.4-4.3-3.8-5.2c-2.7-1-5.9-0.2-7.7,2.1c-1.3,1.6-1.5,3.4-1.5,5.3c0.1,2.3,1,4.2,2.9,5.5
			c1.3,0.9,2.8,1.2,4.4,1.2c1.3,0,2.6,0,3.8-0.4C129.6,22.6,129.7,22.3,129.5,21.5z M124.2,10.2c2.9-0.3,4,1.8,4.1,4.3
			c-2.5,0-4.9,0-7.3,0C120.8,12.4,122.2,10.4,124.2,10.2z M76.4,9.9c-1.1-1.1-2.5-1.6-4-1.6c-2.6-0.1-4.6,0.9-6,3.1
			c-1,1.5-1.1,3.1-1.1,4.8c0.2,3.4,2.5,6,5.8,6.5c0.8,0.1,1.5,0.2,2.1,0.2c1.1,0,2.2-0.2,3.3-0.4c0.5-0.1,0.6-0.4,0.4-1.2
			c-0.1-0.4-0.4-0.6-0.9-0.6c-1.3,0-2.6,0.1-3.8,0.1c-2.2,0.1-4-2.1-3.7-4.4c0.2,0,0.4,0,0.6-0.2c2.8,0,5.5,0,8.3,0c0.8,0,1-0.3,1-1
			c0-0.3-0.1-0.8-0.1-1.2C78.1,12.5,77.6,11,76.4,9.9z M75.7,14.5c-2.4,0-4.8,0-7.3-0.1c0-1.5,0.6-2.8,1.8-3.7
			C71.1,10,73,10,74,10.6C75.1,11.3,75.9,13.2,75.7,14.5z M105.4,20.8c1.3-1.4,1.8-3,1.7-4.8c0.1-2.3-0.7-4.3-2.6-5.8
			c-3-2.6-7.7-2-10,1.3c-1.1,1.8-1.3,3.7-1.1,5.8c0.2,1.5,0.9,2.8,2,3.8c1.5,1.5,3.4,2.1,5.5,1.9C102.7,22.8,104.2,22.1,105.4,20.8z
			 M96.7,18.6c-0.6-2-0.7-4,0.1-5.9c1.1-2.4,4.3-3.1,6.1-1.2c0.7,0.8,1,1.8,1.1,2.9c0,0.4,0,1,0,1.4h0.1c-0.1,0.8-0.2,1.7-0.2,2.5
			c-0.4,1.7-1.9,2.9-3.6,2.9C98.9,21.3,97.3,20.7,96.7,18.6z M45.6,16.5c-0.9-0.7-2-1.3-3.1-1.8c-0.8-0.4-1.4-0.6-2.1-1
			c-0.7-0.5-1-1.1-0.9-1.8c0.1-0.7,0.6-1.1,1.2-1.3c0.4-0.2,0.7-0.2,1.1-0.2c1.1-0.1,2.1,0.2,3.1,0.5c0.2,0,0.6,0,0.7-0.1
			c0.7-0.7,0.6-1.6-0.4-1.9c-1.8-0.5-3.6-0.6-5.5-0.1C38.8,9,37.9,9.4,37.3,10c-1.4,1.5-1.2,3.7,0.5,4.8c1,0.6,2.1,1.2,3.2,1.7
			c0.7,0.3,1.6,0.7,2.3,1.2c1,0.6,0.8,2.4-0.1,2.8c-0.8,0.4-1.6,0.5-2.3,0.4c-1.3-0.2-2.6-0.5-3.8-0.8c-0.4-0.2-0.7-0.1-0.8,0.2
			c-0.8,1.3-0.5,1.9,0.7,2.1c1.3,0.2,2.7,0.4,4,0.6c1.4-0.1,2.8-0.4,4.1-0.8C47.5,21.1,47.7,18.1,45.6,16.5z M63.2,20.9
			c-0.4,0-0.8,0-1.2,0c-1.6,0-2.3-0.8-2.3-2.4c0-2.5,0-5,0-7.6c0-0.1,0-0.3,0-0.4c0.4,0,0.8,0,1.2,0c1.5,0,1.5,0,1.5-1.5
			c0-0.4-0.1-0.5-0.5-0.5c-0.7,0-1.4,0-2.2,0c0-0.2,0-0.4-0.1-0.8c0-0.8,0-1.6,0-2.5c0-0.4-0.2-0.7-0.7-0.6
			c-0.6,0.2-1.2,0.3-1.7,0.4c-0.4,0.1-0.5,0.4-0.5,0.8c0,1.6,0,3.3,0,4.9c0.1,2.8,0.1,5.6,0.2,8.6c0,1.3,0.7,2.4,1.9,3
			c1.1,0.5,2.3,0.5,3.5,0.5c1.6,0,1.4,0.1,1.4-1.4C63.7,21,63.6,20.9,63.2,20.9z M91,22.6c0.2,0,0.6-0.4,0.6-0.6
			c0.1-1-0.6-1.6-1.6-1.3c-1.1,0.3-2.2,0.3-3.3,0.1c-0.8-0.1-1.5-0.5-1.9-1.2c-1.2-2.1-1.4-4.4-0.5-6.7c0.4-1.2,1.4-2.1,2.7-2.2
			c0.9,0,1.8,0.1,2.7,0.2c1,0.2,1.1,0.1,1.5-0.6c0.2-0.7,0.2-0.9-0.4-1.1c-0.8-0.2-1.6-0.4-2.3-0.5c-3.8-0.4-8,2.5-7.9,7.1
			c0.1,0.8,0.2,1.6,0.4,2.3c0.4,1.7,1.3,3.1,2.9,3.9c1.5,0.8,3.1,1.2,4.8,1.1C89.4,23,90.3,22.8,91,22.6z M116.3,8.6
			c-0.8,0-1.7,0-2.5,0c-2.1,0.1-3.7,1.3-3.7,3.7c0,1.6,0,3.2,0,4.8c0,1.6,0,3.3,0.1,5c0,0.4,0.1,0.6,0.6,0.6c0.5,0,1-0.1,1.5,0
			c0.5,0.1,0.6-0.2,0.6-0.6c0-2.9,0-5.9,0-8.9c0-0.8,0-1.6,0.7-2.2c0.7-0.5,1.5-0.5,2.2-0.5c1.1,0,1.2-0.2,1.2-1.3
			C117,8.8,116.8,8.6,116.3,8.6z M52.3,8.3c-0.4,0.2-0.9,0.3-1.3,0.4c-0.5,0.1-0.7,0.4-0.7,0.9c0,4.2,0,8.4,0,12.6
			c0,0.2,0,0.4,0,0.6c0.8,0,1.5,0,2.1-0.1c0.5,0,0.5-0.2,0.5-0.6c0-4.3,0-8.8,0-13.1c0-0.1,0-0.2,0-0.3C52.8,8.3,52.7,8.2,52.3,8.3z
			 M133.6,8.7c0-0.1-0.1-0.1-0.1-0.1c0.2,0,0.3,0,0.4-0.1c0.1-0.2,0.1-0.3,0.1-0.4c0-0.1-0.1-0.2-0.1-0.3s-0.1-0.2-0.2-0.2
			s-0.3,0-0.5,0h-0.6v1.9l0.3,0.1V8.8h0.2c0.1,0,0.2,0,0.2,0c0.1,0,0.2,0.2,0.3,0.4l0.1,0.3h0.4l-0.2-0.4
			C133.7,8.9,133.7,8.7,133.6,8.7z M133.3,8.4h-0.4l0.1-0.5h0.4c0.2,0,0.3,0,0.3,0c0.1,0,0.1,0.1,0.1,0.1v0.1c0,0.1-0.1,0.1-0.1,0.2
			C133.6,8.4,133.5,8.4,133.3,8.4z M134.8,7.5c-0.1-0.2-0.3-0.5-0.6-0.6c-0.3-0.1-0.6-0.2-0.9-0.2s-0.5,0.1-0.9,0.2
			c-0.2,0.1-0.5,0.3-0.6,0.6c-0.1,0.3-0.2,0.6-0.2,0.9c0,0.4,0.1,0.6,0.2,0.9c0.1,0.2,0.3,0.5,0.6,0.6c0.3,0.1,0.6,0.2,0.9,0.2
			c0.4,0,0.6-0.1,0.9-0.2c0.2-0.1,0.5-0.3,0.6-0.6c0.1-0.3,0.2-0.6,0.2-0.9C135,8.1,134.9,7.8,134.8,7.5z M134.5,9.1
			c-0.1,0.2-0.3,0.3-0.5,0.5c-0.2,0.2-0.5,0.2-0.7,0.2c-0.2,0-0.5-0.1-0.7-0.2c-0.2-0.1-0.4-0.3-0.5-0.5c-0.2-0.2-0.2-0.5-0.2-0.7
			c0-0.2,0.1-0.5,0.2-0.7c0.1-0.2,0.3-0.4,0.5-0.5c0.2-0.2,0.5-0.2,0.7-0.2c0.3,0,0.5,0.1,0.7,0.2c0.2,0.1,0.3,0.3,0.5,0.5
			c0.2,0.2,0.2,0.5,0.2,0.7C134.7,8.6,134.6,8.9,134.5,9.1z"/>
	</g>
</g>
</svg>
