<?xml version="1.0" encoding="utf-8"?>
<!-- Generator: Adobe Illustrator 19.0.1, SVG Export Plug-In . SVG Version: 6.00 Build 0)  -->
<!DOCTYPE svg PUBLIC "-//W3C//DTD SVG 1.1//EN" "http://www.w3.org/Graphics/SVG/1.1/DTD/svg11.dtd">
<svg version="1.1" id="Layer_1" xmlns="http://www.w3.org/2000/svg" xmlns:xlink="http://www.w3.org/1999/xlink" x="0px" y="0px"
	 viewBox="0 0 66 66" style="enable-background:new 0 0 66 66;" xml:space="preserve">
<style type="text/css">
	.st0{fill:#00C1F3;}
	.st1{fill-rule:evenodd;clip-rule:evenodd;fill:#00C1F3;}
</style>
<g>
	<g>
		<path class="st0" d="M48.4,57.8c0.1-0.3,0-0.7-0.2-1.2c-0.2-0.7-0.6-1.2-1.2-1.7c-0.9-0.6-1.9-1-3-1.1c-0.7,0-1.4,0-2.1,0.2
			c-0.7,0.1-1.4,0.4-2,0.9c-0.3,0.3-0.6,0.6-0.9,1c-0.5,0.8-0.7,1.6-0.5,2.5c0.1,0.6,0.4,1,0.8,1.5c0.5,0.5,1,0.8,1.7,1.1
			c1,0.4,1.9,0.5,2.9,0.5c0.4,0,0.7-0.1,1.1-0.2c0.7-0.1,1.4-0.4,2-0.9C47.8,59.7,48.4,59,48.4,57.8z M51.7,62.2
			c-0.6-0.5-1.4-0.7-2.2-0.7c-0.4,0-0.7,0.1-1.1,0.2c-0.5,0.1-0.9,0.4-1.3,0.8c-0.6,0.7-0.6,1.6-0.1,2.3c0.2,0.3,0.5,0.5,0.8,0.7
			c0.5,0.3,1.1,0.5,1.7,0.5c0.5,0,1-0.1,1.4-0.4c0.4-0.2,0.8-0.4,1.1-0.8c0.5-0.6,0.6-1.1,0.3-1.8C52.2,62.7,52,62.4,51.7,62.2z
			 M65.5,26.5c0-0.1-0.1-0.2-0.2-0.3c0,0,0-0.1,0-0.2c0,0,0-0.1,0.1-0.2c0.1-0.2,0.2-0.5,0.3-0.7c0-0.2,0.1-0.3,0.2-0.5
			c0-0.1,0-0.2,0-0.3c0-0.2,0-0.3,0.1-0.5c0,0,0,0,0-0.1c0-0.1,0-0.2,0-0.3v-0.1c0-0.6,0-1.1,0-1.7c0,0,0-0.1,0-0.2
			c-0.8-0.4-0.8-0.8-0.9-1.2c-0.4-1.6-1-3-1.9-4.3c-0.4-0.6-0.9-1.1-1.4-1.5c-0.4-0.3-0.8-0.6-1.3-0.8c-0.1,0-0.2-0.1-0.2-0.2
			c0-0.2,0-0.4-0.1-0.6c-0.3-0.9-0.7-1.7-1.3-2.4C58.1,9.6,57.2,9,56,8.6c-0.3,0-0.5-0.2-0.8-0.2c-0.2,0-0.3-0.1-0.3-0.3
			c-0.2-0.6-0.5-1.1-0.8-1.5C53.6,6,53,5.4,52.3,4.9c-1-0.7-2-1.3-3.3-1.5c-0.4-0.1-0.8-0.2-1.1-0.2c-0.3,0-0.6,0-0.9,0
			c-0.1,0-0.2,0-0.3-0.1c-0.5-0.6-1.1-1-1.8-1.3c-1-0.6-2.1-0.9-3.3-1.2c-0.6-0.2-1.2-0.3-1.9-0.4c-0.3,0-0.7-0.1-1-0.1
			c-0.5,0-1-0.1-1.4-0.1c-0.1,0-0.2,0-0.3,0c-0.2,0-0.4,0-0.5,0s-0.3,0-0.4,0c-0.4,0-0.7,0-1,0c-0.4,0-0.8,0.1-1.2,0.2
			c-0.6,0.1-1.2,0.3-1.7,0.5c-0.6,0.2-1.1,0.4-1.6,0.7c-0.1,0-0.2,0.1-0.4,0.1c-1.1,0-2.2-0.1-3.3,0c-0.3,0-0.6,0-0.9,0
			c-0.3,0-0.6,0-0.9,0.1c-1.2,0.2-2.3,0.5-3.4,1c-1.2,0.5-2.3,1.2-3.3,2.1c-0.5,0.4-1,0.8-1.4,1.2c-0.2,0.2-0.3,0.2-0.5,0.3
			c-0.5,0-0.9,0.2-1.4,0.3c-1.5,0.3-3,0.8-4.3,1.6c-1.3,0.7-2.4,1.5-3.4,2.6c-1,1.2-1.7,2.4-2.1,4C5.1,15,5,15.4,5,15.9
			c0,0.2,0,0.3,0,0.5c0,0,0,0-0.1,0c-1,0.4-1.8,1-2.4,1.8C1.8,19.1,1.3,20,0.9,21c-0.3,0.7-0.5,1.4-0.6,2.1
			c-0.1,0.6-0.2,1.1-0.1,1.7c0,0.8,0.2,1.5,0.5,2.2c0,0.1,0,0.2,0,0.3c-0.3,0.5-0.5,1-0.6,1.5c0,0.3,0,0.5-0.1,0.7
			c0,0.9,0.2,1.7,0.5,2.4c0.2,0.3,0.3,0.6,0.5,0.9c0.2,0.3,0.4,0.5,0.7,0.7c0,0,0.1,0.1,0.2,0.2v0.2c-0.1,0.3-0.2,0.7-0.3,1
			c-0.1,0.5-0.1,0.9,0,1.4c0,0.5,0.2,1,0.4,1.5c0.4,0.8,0.8,1.4,1.4,1.9c0.8,0.7,1.7,1.1,2.8,1.4c0.5,0.2,1,0.3,1.5,0.3
			c0.2,0,0.2,0,0.3,0.2c0.4,1.1,1.1,1.9,2,2.6c0.7,0.5,1.4,0.8,2.2,1c0.5,0.2,1.1,0.3,1.6,0.4c0.5,0,1,0,1.6,0
			c1.2,0,2.4-0.3,3.6-0.7c0,0,0,0,0.1,0c0.2,0,0.3,0,0.4,0c0.6,0.4,1.2,0.7,1.8,0.8c0.4,0.1,0.7,0.1,1,0.2c0.5,0,0.9,0,1.4,0
			c1.1,0,2.1-0.3,3.1-0.7c0.3-0.1,0.6-0.3,0.9-0.5c0,0,0,0,0.1,0H28c0.2,0.1,0.3,0.2,0.5,0.3c0.4,0.2,0.8,0.3,1.3,0.4
			c0.4,0,0.7,0,1.1,0c0,0,0,0.1,0,0.2c0.4,1.5,1.2,2.8,2.4,3.8c1.1,1,2.4,1.6,3.7,2.1c0.8,0.3,1.5,0.5,2.3,0.6c0.4,0,0.7,0,1.1,0.1
			c0.6,0,1.1,0,1.7,0c0.3,0,0.7,0,1-0.1c0.6,0,1.2-0.2,1.7-0.3c1.5-0.4,3-1,4.3-1.9c0.9-0.7,1.7-1.5,2.3-2.5c0.3-0.5,0.5-1,0.7-1.5
			c0-0.3,0-0.3,0.3-0.3c0.5,0,0.9,0,1.3,0c1.5-0.2,2.9-0.6,4.3-1.3c0.5-0.3,1-0.6,1.5-1c0.1-0.1,0.2-0.2,0.3-0.3
			c0,0,0.1-0.1,0.2-0.2c0.2-0.2,0.4-0.4,0.5-0.6c0,0,0.1-0.2,0.2-0.2c0.1-0.2,0.2-0.3,0.3-0.4c0.1-0.2,0.2-0.3,0.3-0.4
			c0.1-0.2,0.2-0.5,0.3-0.7c0,0,0,0,0-0.1c0,0,0,0,0-0.1c0,0,0,0,0.1,0c0.1,0,0.1,0,0.2,0h0.1c0.1,0,0.2-0.1,0.3-0.2
			c0.1,0,0.2-0.1,0.2-0.2c0,0,0.2-0.1,0.2-0.2c0,0,0,0,0.1-0.1c0.1-0.1,0.2-0.2,0.3-0.3c0,0,0.1-0.2,0.2-0.2c0,0,0.1-0.2,0.2-0.3
			c0-0.1,0.1-0.2,0.2-0.3c0.3-0.6,0.5-1.2,0.6-1.8c0-0.1,0-0.2,0-0.3c0-0.1,0-0.2,0-0.3c0-0.2,0-0.3,0-0.5c0-0.2,0-0.3,0-0.5
			s0-0.3,0-0.5s0-0.3,0-0.5c0-0.2,0-0.3-0.1-0.5c0,0,0-0.1,0-0.2c0,0,0,0,0-0.1c0,0,0,0,0-0.1c0-0.1,0-0.2,0.1-0.3c0,0,0,0,0.1-0.1
			c0.1-0.1,0.2-0.3,0.3-0.4c0.2-0.2,0.3-0.4,0.4-0.6c0-0.1,0.1-0.2,0.2-0.3c0.1-0.1,0.1-0.2,0.2-0.3c0.2-0.4,0.3-0.8,0.4-1.3
			c0-0.1,0-0.2,0-0.3c0-0.1,0-0.2,0-0.3c0,0,0-0.1,0-0.2c0,0,0-0.1,0-0.2v-0.1c0-0.1,0-0.2,0-0.3C66,27.7,65.8,27.1,65.5,26.5z
			 M18.4,21.2c-0.3,0.3-0.6,0.7-0.8,1.1c-0.4,0.7-0.7,1.5-0.9,2.4c0,0.4-0.2,0.7-0.2,1.1c0,0.8-0.1,1.4,0,2c0,0.1,0,0.3,0,0.4
			c0,0.2,0,0.4,0,0.5c0.2,1.4,0.6,2.7,1.3,3.6c0,0,0.1,0.1,0.2,0.2c0,0,0.1,0.1,0.1,0.2c0.1,0.2,0,0.3,0,0.3S18,33,17.9,33
			c0,0-0.1,0-0.2,0c0,0-0.1-0.1-0.2-0.2c-0.6-0.6-1-1.2-1.3-2.1c-0.2-0.6-0.4-1.2-0.5-1.8c0-0.5-0.1-0.9-0.2-1.5c0-0.4,0-0.9,0-1.3
			c0.1-1.6,0.5-2.9,1.2-4c0.3-0.4,0.6-0.8,0.9-1.1c0.1-0.1,0.2-0.2,0.3-0.3c0.1,0,0.2-0.1,0.3,0c0.1,0,0.2,0,0.2,0.2l0.1,0.1
			C18.5,21.1,18.5,21.1,18.4,21.2z M22.4,26.1c-0.1,0-0.2,0-0.3,0c-0.2,0-0.4,0-0.5,0h-0.5H21h-0.1c0,0,0,0-0.1,0c0,0,0,0,0,0.1v0.7
			c0,0.8,0,1.6,0,2.4c0,0.2,0,0.3,0,0.4c0,0.3,0.3,0.5,0.6,0.5c0,0,0.1,0,0.2,0c0.2,0,0.4,0,0.6,0c0,0,0,0,0.1,0h0.1v0.1
			c0,0,0,0,0,0.2s0,0.3,0,0.4c0,0.1-0.1,0.2-0.2,0.3c-0.2,0-0.3,0-0.5,0.1c-0.2,0-0.3,0-0.4,0c-0.2,0-0.4,0-0.5,0
			c-0.7-0.2-1.1-0.6-1.2-1.2c0-0.2,0-0.4,0-0.5c0-1.1,0-2.1,0-3.2c0,0,0,0,0-0.1c-0.1,0-0.2,0-0.3,0h-0.1H19c0,0-0.1,0-0.2,0
			c0,0,0,0-0.1,0h-0.1v-0.1c0-0.2,0-0.4,0-0.7c0-0.1,0.1-0.2,0.2-0.2H19c0,0,0.1,0,0.2,0h0.2c0.1,0,0.2,0,0.3,0c0-0.3,0-0.6,0-0.9
			c0-0.2,0-0.4,0-0.5v-0.2c0,0,0,0,0-0.1c0.2-0.1,0.3-0.2,0.5-0.3c0,0,0.2,0,0.2-0.1c0,0,0.1,0,0.2,0h0.1c0,0.1,0,0.2,0,0.3
			c0,0.3,0,0.6,0,0.9c0,0.3,0,0.5,0,0.8c0,0,0,0,0,0.1h0.7c0.2,0,0.3,0,0.5,0h0.2c0.2,0,0.2,0.1,0.3,0.2
			C22.4,25.7,22.4,25.9,22.4,26.1z M27.6,31.2c0,0-0.1,0-0.2,0c-0.1,0-0.2,0-0.3,0c0,0,0,0-0.1,0c-0.2,0-0.3-0.2-0.3-0.2
			c0-0.2-0.1-0.3-0.1-0.5c0-0.3,0-0.6,0-0.9c0-0.5,0-1,0-1.5c0-0.4,0-0.7,0-1.1c0-0.2,0-0.3,0-0.5c0-0.1,0-0.2,0-0.3
			c-0.1-0.2-0.3-0.3-0.5-0.4c-0.4,0-0.8,0.1-1.1,0.4c-0.3,0.3-0.5,0.6-0.6,1c-0.2,0.4-0.2,0.7-0.2,1.1c0,0.5,0,1.1,0,1.6
			c0,0.2,0,0.4,0,0.6v0.2c0,0.2-0.1,0.3-0.3,0.3c-0.2,0-0.4,0-0.6,0c-0.2,0-0.3-0.1-0.3-0.3v-0.2c0-2.4,0-4.9,0-7.4v-0.8
			c0-0.3,0-0.4,0.4-0.5c0,0,0.2,0,0.3,0c0,0,0.1,0,0.2,0c0.2,0,0.3,0,0.3,0.3c0,0.1,0,0.2,0,0.3v1.4c0,0.7,0,1.4,0,2
			c0.4-0.5,0.9-0.8,1.5-0.9c0.4,0,0.8,0,1.1,0.1c0.5,0.2,0.8,0.6,0.9,1.1c0,0.2,0,0.4,0,0.6c0,0.6,0,1.1,0,1.6c0,0.5,0,1,0,1.6
			c0,0.3,0,0.5,0.1,0.7c0,0,0,0.1,0,0.2l0.1,0.3C27.8,31.2,27.7,31.2,27.6,31.2z M29.1,23.7c0,0,0-0.1,0-0.2
			c0.3-0.3,0.3-0.4,0.3-0.6c0,0,0-0.1,0-0.2c0,0,0.1-0.2,0.2-0.2c0.1,0,0.3,0,0.4,0c0.1,0,0.2,0,0.3,0.1v0.2c0,0.1,0,0.2,0,0.3
			c0,0.2,0,0.3,0,0.5c0,0.2-0.1,0.3-0.3,0.3c-0.1,0-0.2,0-0.3,0c-0.1,0-0.2,0-0.3,0C29.3,23.9,29.2,23.9,29.1,23.7z M31.2,30.9
			c0,0.2-0.1,0.3-0.3,0.3c0,0,0,0-0.1,0c-0.1,0-0.2,0-0.3,0c0,0-0.1,0-0.2,0c-0.1,0-0.1,0-0.2,0c-0.4,0-0.7-0.3-0.8-0.7
			c0-0.1,0-0.3,0-0.4c0-0.6,0-1.1,0-1.6v-0.6v-0.5c0-0.6,0-1.1,0-1.7c0,0,0-0.2,0-0.3c0-0.2,0.1-0.3,0.3-0.3c0.2,0,0.4,0,0.6,0
			s0.3,0.1,0.3,0.3v0.2v3.1v1.2c0,0,0,0.1,0,0.2c0,0.2,0,0.2,0.3,0.2c0,0,0,0,0.1,0s0,0,0.1,0c0.2,0,0.3,0.1,0.3,0.3
			C31.2,30.7,31.2,30.8,31.2,30.9z M37.2,31c0,0.1-0.2,0.1-0.2,0.1c-0.2,0-0.4,0-0.6,0.1c-0.1,0-0.2,0-0.3-0.2
			c0-0.2-0.1-0.4-0.1-0.6c0-0.1,0-0.3,0-0.4v-0.6c0-0.8,0-1.7,0-2.6c0-0.2,0-0.3,0-0.4c0-0.3-0.3-0.5-0.6-0.5
			c-0.4,0-0.8,0.1-1.1,0.4c-0.2,0.2-0.4,0.4-0.5,0.7c-0.2,0.5-0.3,0.9-0.3,1.4c0,0.4,0,0.7,0,1c0,0.3,0,0.7,0,1.1c0,0,0,0.1,0,0.2
			c0,0,0,0,0,0.1v0.1h-0.1c-0.1,0-0.3,0-0.5,0c-0.2,0-0.3,0-0.4,0c0-0.1,0-0.2,0-0.3c0-0.7,0-1.3,0-2c0-0.8,0-1.5,0-2.4
			c0-0.1,0-0.2,0-0.3c0,0,0,0,0-0.1c0-0.2,0-0.3-0.2-0.5v-0.1v-0.1h0.1c0,0,0,0,0.1,0c0.1,0,0.2,0,0.3,0c0,0,0.1,0,0.2,0
			c0.1,0,0.2,0,0.3,0.2c0.1,0.2,0.2,0.5,0.2,0.7c0,0,0,0,0,0.1c0.3-0.4,0.6-0.7,1-0.8c0.5-0.2,1.1-0.3,1.6,0
			c0.4,0.2,0.7,0.4,0.9,0.8c0.1,0.2,0.2,0.5,0.2,0.7V27c0,0.2,0,0.4,0,0.6c0,0.6,0,1.1,0,1.7c0,0.3,0,0.5,0,0.8c0,0.1,0,0.2,0,0.3
			C37.1,30.6,37.1,30.8,37.2,31C37.3,30.9,37.3,31,37.2,31z M43.5,31.1c0,0-0.1,0-0.2,0c-0.2,0-0.3,0-0.4,0h-0.2h-0.2
			c-0.2,0-0.3-0.1-0.4-0.2c-0.5-0.6-0.9-1-1.2-1.4c-0.3-0.3-0.6-0.7-0.8-1l-0.2-0.2c-0.1,0-0.2,0.2-0.3,0.3v0.1v0.6
			c0,0.4,0,0.8,0,1.2c0,0,0,0.1,0,0.2c-0.1,0.1-0.2,0.1-0.3,0.1c0,0-0.1,0-0.2,0c-0.1,0-0.1,0-0.1,0c-0.1,0-0.2,0-0.4,0v-0.1
			c0,0,0-0.1,0-0.2c0-1.9,0-8.2,0-8.5c0,0,0.1,0,0.2,0H39c0.2,0,0.3,0,0.5,0h0.1v0.1c0,0,0,0.1,0,0.2c0,0.1,0,0.2,0,0.2v2
			c0,0.8,0,1.6,0,2.5l0.3-0.3c0.4-0.4,0.8-0.7,1.1-1.1c0.2-0.2,0.3-0.3,0.5-0.5c0.1-0.1,0.2-0.2,0.4-0.2h0.2c0,0,0.1,0,0.2,0
			c0.1,0,0.2,0,0.3,0c0,0,0.2,0,0.3,0.1v0.1v0.1c-0.1,0.2-0.3,0.3-0.4,0.4c-0.4,0.4-0.7,0.7-1.1,1c-0.2,0.2-0.3,0.3-0.5,0.5
			c0,0,0,0-0.1,0.1c0,0,0,0,0.1,0.1c0.2,0.2,0.4,0.5,0.6,0.7c0.4,0.4,0.8,0.9,1.1,1.3c0.3,0.3,0.5,0.6,0.7,0.8l0.1,0.2
			c0,0,0.2,0.2,0.2,0.3l0,0.5H43.5z M46.1,30.5c-0.4,0.9-0.9,1.7-1.5,2.3c0,0-0.1,0.1-0.2,0.2c0,0-0.1,0-0.2,0c-0.1,0-0.1,0-0.2,0
			c0,0-0.1-0.1-0.1-0.2v-0.2c0,0,0,0,0.1-0.1c0.6-0.7,1-1.5,1.4-2.5c0.2-0.6,0.3-1.1,0.4-1.8c0.1-0.7,0.1-1.4,0.1-2.1
			c0-1.2-0.2-2.2-0.5-3.1c-0.2-0.4-0.3-0.7-0.5-1c-0.2-0.4-0.4-0.6-0.7-0.9c-0.2-0.2-0.1-0.3,0-0.4l0.2-0.1c0,0,0.1,0,0.2,0
			c0.1,0,0.2,0.2,0.3,0.2c0.5,0.4,0.9,0.9,1.1,1.5c0.3,0.6,0.5,1.3,0.6,2c0.1,0.6,0.2,1,0.2,1.5c0,0.2,0,0.3,0,0.5
			c0.1,0.2,0.1,0.3,0.1,0.3C46.9,28.1,46.6,29.4,46.1,30.5z M50.8,25.5c0,0-0.1,0-0.2,0h-1.1c-0.4,0-0.9,0-1.3,0c-0.1,0-0.2,0-0.3,0
			c-0.1,0-0.2-0.1-0.2-0.2c0,0,0-0.1,0-0.2v-0.2c0-1.1,0-2.1,0-3.2c0-0.3,0-0.4,0.4-0.4c0.3,0,0.5,0,0.7,0c0,0,0.1,0,0.2,0
			c0.1,0.2,0.1,0.3,0.1,0.4c0,0.5,0,0.9,0,1.3c0,0.3,0,0.6,0,0.9c0,0.1,0,0.2,0,0.2s0.1,0,0.2,0h0.8c0.2,0,0.4,0,0.5,0
			c0.3,0,0.4,0,0.4,0.4c0.1,0.3,0.1,0.5,0.1,0.7S51,25.5,50.8,25.5z M55.8,25.3c-0.1,0-0.2,0.1-0.2,0.1c-0.2,0-0.3,0-0.5,0h-0.6
			c-0.2,0-0.3-0.1-0.4-0.3c0,0,0-0.1,0-0.2v-0.1c-0.1,0-0.2,0-0.3,0c-0.2,0-0.5,0-0.7,0c0,0,0,0.1,0,0.2c0,0,0,0.1,0,0.2
			c0,0.1,0,0.1,0,0.1c0,0.1-0.2,0.2-0.3,0.2c-0.3,0-0.7,0-1.1,0h-0.1c0-0.1,0-0.2,0-0.3c0.2-0.5,0.4-1,0.6-1.5l0.3-0.7
			c0-0.2,0.1-0.3,0.2-0.4c0.1-0.3,0.2-0.6,0.3-0.8c0.1-0.3,0.2-0.3,0.5-0.3c0.3,0,0.5,0,0.7,0h0.1c0,0,0.1,0,0.2,0
			c0.1,0,0.2,0,0.3,0.2c0,0,0,0.2,0.1,0.2c0.4,1.1,0.8,2.2,1.3,3.4C55.7,25.1,55.8,25.2,55.8,25.3z M53.1,23.7c0,0.1,0,0.1,0.1,0.2
			c0.2,0,0.3,0,0.5,0c0,0,0,0,0.1,0c0-0.5-0.1-0.9-0.3-1.2C53.3,23,53.2,23.4,53.1,23.7z"/>
	</g>
</g>
</svg>
