<?xml version="1.0" encoding="utf-8"?>
<!-- Generator: Adobe Illustrator 19.0.1, SVG Export Plug-In . SVG Version: 6.00 Build 0)  -->
<!DOCTYPE svg PUBLIC "-//W3C//DTD SVG 1.1//EN" "http://www.w3.org/Graphics/SVG/1.1/DTD/svg11.dtd">
<svg version="1.1" id="Layer_1" xmlns="http://www.w3.org/2000/svg" xmlns:xlink="http://www.w3.org/1999/xlink" x="0px" y="0px"
	 viewBox="0 0 112 50" style="enable-background:new 0 0 112 50;" xml:space="preserve">
<style type="text/css">
	.st0{fill:#00C1F3;}
	.st1{fill-rule:evenodd;clip-rule:evenodd;fill:#00C1F3;}
</style>
<g>
	<g>
		<path class="st0" d="M0,50l13.2,0V0H0V50z M30.4,23.2h-6.8v20.2h1.6v-8.2h4.3c1.7,0,3.2-0.6,4.4-1.7c1.2-1.1,1.9-2.6,1.9-4.3
			c0-1.7-0.6-3.2-1.9-4.3C33.6,23.7,32.1,23.2,30.4,23.2z M33.1,31.6c-0.7,0.7-1.5,1.1-2.6,1.1h-4.3v-7h4.3c1.1,0,1.9,0.4,2.6,1.1
			c0.7,0.7,1,1.5,1,2.4C34.1,30.1,33.7,30.9,33.1,31.6z M43.7,29.1c-1.5,0-2.8,0.4-3.7,1.1c-0.9,0.7-1.6,1.5-1.9,2.3l2.3,1
			c0.2-0.6,0.6-1.1,1.2-1.5c0.6-0.4,1.3-0.5,2-0.5c1,0,1.9,0.3,2.5,0.9c0.7,0.6,1,1.4,1,2.4v0.4c-1-0.6-2.2-0.8-3.7-0.8
			c-1.7,0-3.1,0.4-4.3,1.3c-1.2,0.9-1.7,2-1.7,3.5c0,1.4,0.5,2.5,1.5,3.4c1,0.8,2.2,1.3,3.7,1.3c2,0,3.5-0.8,4.5-2.4h0.1v1.9h1.5V35
			c0-1.9-0.6-3.3-1.7-4.4C46.9,29.6,45.4,29.1,43.7,29.1z M46,40.2c-0.9,0.8-1.8,1.2-2.9,1.2c-0.7,0-1.4-0.2-2-0.6
			c-0.6-0.4-0.9-0.9-0.9-1.6c0-0.7,0.3-1.4,1-1.9c0.6-0.5,1.6-0.8,2.8-0.8c1.5,0,2.5,0.3,3.3,0.9C47.3,38.5,46.9,39.4,46,40.2z
			 M56.9,29.9c-0.8,0.5-1.4,1.1-1.7,1.9h-0.1v-2.3h-2.5v13.8h1.6v-7.6c0-1.3,0.4-2.2,1.2-3c0.8-0.7,1.8-1.1,3-1.1c0.3,0,0.7,0,1,0.1
			v-2.5c-0.3,0-0.6-0.1-0.9-0.1C58.6,29.2,57.7,29.4,56.9,29.9z M69.3,41.2c-1.2,0-1.8-0.8-1.8-2.3v-7h3.4v-2.4h-3.4v-4.2h-2.6v4.2
			h-2.4v2.4h1.4v7.2c0,1.4,0.4,2.5,1.1,3.3c0.8,0.8,1.9,1.2,3.3,1.2c0.8,0,1.5-0.1,2.1-0.4L70.4,41C70.1,41.1,69.7,41.2,69.3,41.2z
			 M80.3,29.1c-0.9,0-1.8,0.2-2.6,0.7c-0.8,0.5-1.4,1-1.8,1.7h-0.1v-1.9h-2.5v13.8h1.6v-7.6c0-1.1,0.3-2.1,1-3
			c0.7-0.9,1.5-1.3,2.6-1.3c2.3,0,3.4,1.3,3.4,3.8v8.1h1.6v-8.5c0-1.8-0.4-3.2-1.3-4.2C83.3,29.6,82,29.1,80.3,29.1z M94.5,29.1
			c-2,0-3.6,0.7-4.8,2.2c-1.3,1.4-1.9,3.2-1.9,5.2c0,2.1,0.6,3.9,1.9,5.3c1.3,1.4,3,2.1,5,2.1c1.5,0,2.8-0.4,3.8-1.1
			c1-0.7,1.8-1.6,2.2-2.7l-2.3-1c-0.7,1.6-1.9,2.4-3.7,2.4c-1.1,0-2.1-0.4-3-1.2c-0.8-0.8-1.3-1.9-1.4-3.3h10.8l0-0.5
			c0-2.2-0.6-4-1.8-5.4C98.1,29.8,96.5,29.1,94.5,29.1z M90.5,34.8c0.3-1,0.7-1.8,1.4-2.4c0.7-0.6,1.5-0.9,2.5-0.9
			c1.3,0,2.3,0.4,3,1.1c0.7,0.7,1,1.5,1.1,2.3H90.5z M110.1,29.2c-0.8,0-1.6,0.2-2.4,0.7c-0.8,0.5-1.3,1.1-1.6,1.9H106v-2.3h-2.5
			v13.8h1.6v-7.6c0-1.2,0.4-2.2,1.1-2.9c0.7-0.7,1.5-1.1,2.5-1.1c0.6,0,1,0.1,1.4,0.2l1-2.4C111.5,29.3,110.8,29.2,110.1,29.2z
			 M29.5,18.6c1.8,0,3.2-0.6,4.3-1.7c1.1-1.1,1.5-2.7,1.5-4c0-0.4,0-0.8-0.1-1.1h-5.7v1.7h4c-0.1,1-0.4,1.6-0.9,2.1
			c-0.6,0.6-1.5,1.2-3.1,1.2c-2.5,0-4.4-2-4.4-4.5c0-2.5,1.9-4.5,4.4-4.5c1.3,0,2.3,0.5,3,1.2l1.2-1.2c-1-1-2.3-1.7-4.2-1.7
			c-3.4,0-6.2,2.8-6.2,6.2C23.2,15.8,26.1,18.6,29.5,18.6z M44.2,14.6c0-2.3-1.8-4-4-4s-4,1.7-4,4c0,2.3,1.8,4,4,4
			S44.2,16.9,44.2,14.6z M38,14.6c0-1.4,1-2.4,2.2-2.4s2.2,1,2.2,2.4c0,1.4-1,2.4-2.2,2.4S38,16,38,14.6z M49.2,10.6
			c-2.2,0-4,1.7-4,4c0,2.3,1.8,4,4,4c2.2,0,4-1.7,4-4C53.2,12.3,51.4,10.6,49.2,10.6z M49.2,17C48,17,47,16,47,14.6
			c0-1.4,1-2.4,2.2-2.4s2.2,1,2.2,2.4C51.4,16,50.4,17,49.2,17z M60.1,11.5L60.1,11.5c-0.4-0.5-1.2-0.9-2.1-0.9c-2,0-3.8,1.8-3.8,4
			c0,2.2,1.8,4,3.8,4c0.9,0,1.7-0.4,2.1-0.9h0.1v0.6c0,1.5-0.8,2.3-2.1,2.3c-1.1,0-1.7-0.8-2-1.4l-1.5,0.6c0.4,1.1,1.6,2.4,3.5,2.4
			c2,0,3.8-1.2,3.8-4.2v-7.2h-1.6V11.5z M58.1,17c-1.2,0-2.2-1-2.2-2.4c0-1.4,1-2.4,2.2-2.4c1.2,0,2.1,1,2.1,2.4
			C60.2,16,59.3,17,58.1,17z M65.2,6.6h-1.7v11.7h1.7V6.6z M72.3,15.9c-0.4,0.7-1.1,1.1-1.9,1.1c-0.9,0-1.5-0.4-1.9-1.2l5.3-2.2
			l-0.2-0.5c-0.3-0.9-1.3-2.5-3.4-2.5c-2,0-3.7,1.6-3.7,4c0,2.2,1.7,4,3.9,4c1.8,0,2.9-1.1,3.3-1.8L72.3,15.9z M70.2,12.1
			c0.7,0,1.3,0.3,1.5,0.8l-3.5,1.5C68.1,12.9,69.3,12.1,70.2,12.1z"/>
	</g>
</g>
</svg>
