<?xml version="1.0" encoding="utf-8"?>
<!-- Generator: Adobe Illustrator 19.0.1, SVG Export Plug-In . SVG Version: 6.00 Build 0)  -->
<!DOCTYPE svg PUBLIC "-//W3C//DTD SVG 1.1//EN" "http://www.w3.org/Graphics/SVG/1.1/DTD/svg11.dtd">
<svg version="1.1" id="Layer_1" xmlns="http://www.w3.org/2000/svg" xmlns:xlink="http://www.w3.org/1999/xlink" x="0px" y="0px"
	 viewBox="0 0 115 24" style="enable-background:new 0 0 115 24;" xml:space="preserve">
<style type="text/css">
	.st0{fill:#00C1F3;}
	.st1{fill-rule:evenodd;clip-rule:evenodd;fill:#00C1F3;}
</style>
<g>
	<g>
		<path class="st0" d="M105.3,4.1c-0.2,0-0.2,0-0.3,0c0,1,0,1.9,0,2.9c-0.2-0.1-0.3-0.2-0.3-0.2c-0.5-0.5-1-1-1.6-1.5
			c-0.7-0.6-1.4-1-2.2-1.3c-0.8-0.4-1.6-0.5-2.5-0.5c-0.6,0-1.1,0-1.7,0.1c-0.6,0.1-1.1,0.2-1.6,0.4c-1.1,0.5-2.1,1.2-3,2.1
			c-1.1,1.1-1.9,2.5-2.3,4.1c-0.4,1.2-0.4,2.5-0.4,3.8c0.1,1,0.2,1.9,0.5,2.9c0.4,1.4,1.1,2.6,2.1,3.7c0.9,1,2.1,1.8,3.4,2.3
			c0.7,0.3,1.5,0.5,2.3,0.5c0.5,0.1,1,0,1.5,0c0.6,0,1.1-0.2,1.6-0.3c0.8-0.2,1.6-0.7,2.4-1.3c0.4-0.4,0.8-0.8,1.3-1.2
			c0.1-0.1,0.3-0.2,0.4-0.3c0,0.9,0,1.7,0,2.6c0.1,0,0.1,0,0.1,0c1.1,0,2.2,0,3.4,0c0.1,0,0.2,0,0.2,0c0-6.3,0-12.6,0.2-18.8
			c-0.2,0-0.2,0-0.3,0C107.5,4.1,106.4,4.1,105.3,4.1z M105.2,14.3c0,1.2-0.4,2.3-1.1,3.4c-0.6,0.9-1.3,1.5-2.3,2
			c-0.5,0.2-1,0.5-1.6,0.5c-0.4,0-0.7,0.1-1.1,0.1c-1.2,0-2.2-0.3-3.2-0.8c-0.6-0.4-1.1-1-1.5-1.6c-0.5-0.8-0.8-1.6-1-2.5
			c-0.2-1-0.1-1.9-0.1-2.9c0-0.6,0.2-1.3,0.5-1.9c0.3-0.6,0.6-1.2,1.1-1.8c0.8-0.9,1.7-1.5,2.8-1.8c0.4-0.1,0.9-0.2,1.4-0.2
			c0.7,0,1.4,0,2.1,0.3c0.7,0.2,1.4,0.6,2,1.2c0.6,0.7,1.2,1.5,1.5,2.4C105.2,11.9,105.3,13.1,105.2,14.3z M22.3,22
			c-0.5-0.9-0.9-1.9-1.3-2.8c-0.4-1-0.9-2-1.4-3c-0.3-0.6-0.5-1.2-0.8-1.8c-0.4-0.9-0.9-1.8-1.3-2.8c-0.7-1.5-1.4-3-2.1-4.5
			c-0.3-0.7-0.6-1.3-0.9-2c-0.3-0.8-0.6-1.5-1-2.3c-0.2-0.5-0.4-1-0.7-1.5c-0.2-0.4-0.4-0.8-0.8-1C12,0.1,11.7,0.1,11.6,0
			c-0.1,0-0.3,0-0.6,0.1c-0.2,0.1-0.5,0.3-0.7,0.4c-0.4,0.2-0.6,0.6-0.7,1C9,2.8,8.5,4,7.9,5.3C7,7.5,6,9.6,5,11.8
			c-1.1,2.3-2.1,4.7-3.2,7c-0.6,1.3-1.2,2.7-1.7,4C0,22.9,0,23,0,23v0.1c1.2,0,2.4,0,3.6,0c0.3,0,0.4-0.1,0.5-0.3
			c0.4-0.9,0.8-1.8,1.2-2.7c0.1-0.2,0.2-0.2,0.3-0.2c3.8,0,7.7,0,11.6,0c0.2,0,0.3,0.1,0.3,0.1c0.5,0.9,0.9,1.9,1.3,2.8
			c0.1,0.1,0.2,0.1,0.3,0.1c1.1,0,2.3,0,3.5,0c0.1,0,0.2-0.1,0.1-0.2C22.5,22.5,22.4,22.2,22.3,22z M6.9,16.3
			c1.4-3.2,2.9-6.5,4.3-9.7c0.1,0,0.1,0,0.1,0c1.5,3.2,2.9,6.4,4.4,9.7C12.8,16.3,9.9,16.3,6.9,16.3z M37.5,20.5
			c-0.3-0.5-0.6-1-0.9-1.6c-0.1-0.1-0.2-0.3-0.2-0.4c0,0.1-0.1,0.1-0.1,0.1c-0.5,0.2-0.8,0.5-1.3,0.8c-0.7,0.4-1.4,0.7-2.2,0.7
			c-1.2,0.1-2.3,0-3.4-0.5c-0.7-0.3-1.3-0.7-1.9-1.3c-0.5-0.5-0.9-1.1-1.2-1.7c-0.4-0.8-0.7-1.7-0.7-2.6c-0.1-0.8,0-1.6,0.3-2.4
			c0.1-0.4,0.4-0.8,0.6-1.2c0.3-0.6,0.7-1.1,1.2-1.5c0.7-0.6,1.5-1.1,2.4-1.4c0.5-0.2,1.1-0.3,1.7-0.3c0.5,0,0.9,0.1,1.4,0.1
			c1,0.2,1.9,0.6,2.7,1.3C36.3,9,36.3,9,36.5,8.5c0.4-0.9,1-1.8,1.6-2.7L38,5.7c-0.4-0.2-0.7-0.5-1.1-0.7c-0.8-0.5-1.5-0.8-2.4-1
			c-0.6-0.2-1.2-0.4-1.9-0.4c-0.5-0.1-1,0-1.6,0c-0.8,0.1-1.7,0.3-2.5,0.6c-1.2,0.4-2.2,1.1-3.2,1.9c-0.8,0.8-1.5,1.6-2.1,2.6
			c-0.8,1.4-1.3,3-1.3,4.7c0,0.6,0.1,1.2,0.1,1.8c0.1,1,0.4,2,0.9,2.9c0.6,1.2,1.4,2.3,2.5,3.2c1,0.8,2.1,1.5,3.3,1.9
			c0.8,0.3,1.7,0.5,2.6,0.6c0.4,0,0.8,0,1.2,0.2c0.5,0,0.9-0.1,1.3-0.1c0.4,0,0.9-0.2,1.3-0.3c0.5-0.2,1-0.5,1.5-0.7
			c0.5-0.3,1-0.6,1.6-1c0-0.1,0.1-0.2,0-0.3C38,21.2,37.7,20.9,37.5,20.5z M59.1,19.9c-0.4-0.4-0.8-0.8-1.2-1.2c0-0.1,0-0.3,0-0.3
			c0.3-0.7,0.6-1.4,0.7-2.2c0.2-0.7,0.3-1.4,0.3-2.1c0-0.9-0.1-1.7-0.4-2.6c-0.2-0.4-0.3-0.9-0.5-1.4c-0.2-0.5-0.5-1-0.8-1.5
			c-0.4-0.8-1-1.4-1.6-2c-0.6-0.6-1.2-1.1-2-1.5c-0.5-0.3-1-0.5-1.5-0.7c-0.4-0.2-0.8-0.3-1.2-0.3c-0.5-0.2-1-0.3-1.6-0.3
			s-0.5,0.1-0.3,0.5c0.6,1.3,1.4,2.5,2.6,3.5c0.6,0.5,1.2,1,1.8,1.7c0.9,1.1,1.5,2.2,1.6,3.6c0.2,1.5-0.2,2.9-1,4.2
			C53,19,51.4,20,49.4,20.2c-1,0.1-1.9,0-2.9-0.4c-0.6-0.3-1.2-0.7-1.8-1.2c-0.8-0.8-1.4-1.7-1.8-2.7c-0.3-0.6-0.4-1.3-0.4-2
			c0-0.5,0-1,0.1-1.5c0-0.3,0.2-0.7,0.3-1.1c0.5-1.1,1.2-2,2.1-2.8c0.4-0.4,0.9-0.8,1.3-1.2c1-1,1.7-2.1,2.3-3.4
			c0.1-0.2,0.1-0.3-0.1-0.3c-0.7,0-1.4,0.2-2.1,0.3c-0.8,0.2-1.6,0.5-2.4,0.9c-1.2,0.6-2.3,1.5-3.2,2.7c-1.2,1.5-2,3.2-2.1,5.2
			c-0.1,0.6,0,1.3,0,2s0.2,1.4,0.5,2.1c0.3,1,0.9,1.9,1.6,2.8c0.8,0.9,1.7,1.7,2.7,2.3c0.9,0.5,1.9,1,2.9,1.1
			c0.6,0.2,1.2,0.3,1.9,0.3s1.3-0.1,2-0.1c0.7,0,1.5-0.2,2.2-0.5c0.6-0.3,1.3-0.6,1.9-1c0.3-0.1,0.6-0.4,0.9-0.6
			c0.6,0.6,1.2,1.1,1.8,1.7c0,0.1,0.2,0.1,0.3,0.1c1.7,0,3.3,0,5,0c0,0,0,0,0.1,0c-0.7-0.6-1.4-1.2-2.1-1.9
			C59.9,20.6,59.5,20.3,59.1,19.9z M62.4,22.9c0.1,0.1,0.2,0.2,0.3,0.3l0.1,0.1c-0.2-0.4-0.2-0.4-0.2-0.4
			C62.6,22.9,62.5,22.9,62.4,22.9z M75.7,6.1c0,2.9,0,5.9,0,8.8c0,1.1-0.3,2.1-0.9,3c-0.8,1.3-2.1,2.1-3.7,2.2
			c-0.8,0-1.6-0.1-2.4-0.4c-0.8-0.3-1.4-0.8-1.9-1.4c-0.6-0.7-1-1.6-1.2-2.6c-0.2-0.7-0.2-1.5-0.2-2.2c0-3,0-6,0-9
			c0-0.1,0-0.2,0-0.3c-0.6-0.1-3.6-0.1-3.8,0c0,0.1,0,0.1,0,0.2c0,2.9,0,5.9,0,8.9c0,0.5,0,1,0,1.5c0.1,1,0.3,2,0.7,3
			c0.5,1.4,1.4,2.6,2.5,3.6c0.8,0.6,1.6,1.1,2.5,1.5c0.7,0.3,1.5,0.6,2.3,0.6c1.1,0.1,2.1,0.1,3.2-0.3c0.5-0.2,1.1-0.3,1.6-0.6
			c0.8-0.4,1.5-0.9,2.2-1.6c0.7-0.7,1.2-1.5,1.7-2.4c0.5-0.9,0.8-1.9,1-2.9c0.2-0.6,0.2-1.3,0.2-2c0-3.1,0-6.3,0-9.4
			c0-0.2,0-0.2,0-0.3c-1.3,0-2.5,0-3.8,0C75.7,4.7,75.7,5.3,75.7,6.1z M86.4,4c-1,0-2.1,0-3.2,0c-0.1,0-0.1,0-0.2,0
			c0,6.3,0,12.6,0,18.9c1.2,0,2.4,0,3.7,0c0,0,0-0.1,0-0.2c0-6.1,0-12.2,0-18.4C86.7,4,86.6,4,86.4,4z M113.5,5.2
			c0-0.1-0.1-0.1-0.1-0.1c0.1,0,0.3,0,0.4-0.1c0.1-0.1,0.1-0.3,0.1-0.4c0-0.1-0.1-0.2-0.1-0.3c-0.1-0.1-0.2-0.2-0.3-0.2
			c-0.1,0-0.3,0-0.5,0h-0.7V6h0.5V5.2h0.2c0.2,0,0.3-0.1,0.3,0c0,0.1,0.2,0.2,0.3,0.5l0.1,0.3h0.4l-0.3-0.4
			C113.6,5.4,113.6,5.2,113.5,5.2z M113,4.9h-0.4l0.1-0.5h0.4c0.2,0,0.3,0,0.3,0c0.1,0,0.1,0.1,0.1,0.1v0.1c0,0.1-0.1,0.2-0.1,0.2
			C113.3,4.9,113.2,4.9,113,4.9z M114.7,4.3c-0.2-0.3-0.4-0.6-0.7-0.7c-0.3-0.2-0.6-0.3-0.9-0.3c-0.3,0-0.6,0-0.9,0.3
			c-0.3,0.2-0.6,0.4-0.7,0.7c-0.2,0.3-0.3,0.6-0.3,0.9c0,0.3,0.2,0.6,0.3,0.9c0.2,0.3,0.4,0.6,0.7,0.7c0.3,0.2,0.6,0.3,0.9,0.3
			c0.3,0,0.6-0.2,0.9-0.3c0.3-0.2,0.6-0.4,0.7-0.7c0.2-0.3,0.3-0.6,0.3-0.9S114.9,4.6,114.7,4.3z M114.6,6c-0.2,0.3-0.3,0.5-0.6,0.6
			c-0.3,0.2-0.5,0.2-0.8,0.2c-0.3,0-0.5-0.1-0.8-0.2c-0.3-0.2-0.5-0.3-0.6-0.6c-0.2-0.3-0.2-0.5-0.2-0.8s0.1-0.6,0.2-0.8
			c0.2-0.3,0.3-0.5,0.6-0.6c0.2-0.2,0.4-0.2,0.7-0.2c0.3,0,0.5,0,0.9,0.2c0.3,0.2,0.5,0.3,0.6,0.6c0.2,0.3,0.2,0.5,0.2,0.8
			S114.7,5.8,114.6,6z"/>
	</g>
</g>
</svg>
