<?xml version="1.0" encoding="utf-8"?>
<!-- Generator: Adobe Illustrator 19.0.1, SVG Export Plug-In . SVG Version: 6.00 Build 0)  -->
<!DOCTYPE svg PUBLIC "-//W3C//DTD SVG 1.1//EN" "http://www.w3.org/Graphics/SVG/1.1/DTD/svg11.dtd">
<svg version="1.1" id="Layer_1" xmlns="http://www.w3.org/2000/svg" xmlns:xlink="http://www.w3.org/1999/xlink" x="0px" y="0px"
	 viewBox="0 0 88 58.7" style="enable-background:new 0 0 88 58.7;" xml:space="preserve">
<style type="text/css">
	.st0{fill:#00C1F3;}
	.st1{fill-rule:evenodd;clip-rule:evenodd;fill:#00C1F3;}
</style>
<g>
	<g>
		<path class="st0" d="M0,0c0,12.2,0,24.5,0,36.8C4.9,24.5,9.8,12.3,14.6,0C9.7,0,4.9,0,0,0z M39.6,0.1c-4.8,0-9.7,0-14.6,0
			c4.9,12.2,9.8,24.4,14.6,36.8C39.6,24.6,39.6,12.3,39.6,0.1z M13.7,29.6c2.2,0,4.3,0,6.5,0c0.1,0,0.2,0,0.2,0.1
			c0.9,2.3,1.8,4.7,2.7,7.1c0.1,0.1,0.1,0.1,0.2,0.1c1.9,0,3.9,0,5.8,0h0.1c-3.1-7.7-6.2-15.5-9.3-23.2c-2.2,5.4-4.3,10.6-6.4,16
			C13.6,29.6,13.7,29.6,13.7,29.6z M31.1,49.6c-0.2-0.5-0.6-0.9-1.1-1.1c-0.9-0.3-1.9,0-2.5,1c-0.1,0-0.1,0.1-0.1,0.1
			c0-1.7,0-3.4,0-5.2c-0.8,0-1.6,0-2.3,0c0,4.7,0.1,9.3,0,14c0.6,0,1.3,0,1.9,0c0.1,0,0.1-0.1,0.1-0.1c0-0.1,0-0.3,0-0.4
			c0.1-0.2,0.1-0.4,0.1-0.7c0.1,0.1,0.2,0.3,0.1,0.4c0.2,0.4,0.6,0.8,1.1,0.9c0.8,0.2,1.5,0,2.1-0.6c0.6-0.5,0.9-1.3,1.1-2.1
			c0.3-1.5,0.3-2.9,0.1-4.4C31.7,50.9,31.4,50.2,31.1,49.6z M29.5,55.3c0,0.2-0.2,0.5-0.3,0.7c-0.3,0.6-1.1,0.6-1.4,0
			c-0.2-0.4-0.3-0.8-0.3-1.3c0-0.4,0-0.8,0-1.3c0-0.6,0-1.1,0.1-1.8c0-0.4,0.1-0.7,0.3-1c0.3-0.6,0.9-0.6,1.3,0
			c0.3,0.4,0.4,0.8,0.4,1.2C29.8,53.1,29.8,54.1,29.5,55.3z M13.5,48.9c0,0.1,0,0.3,0,0.4C13.4,49.3,13.4,49.2,13.5,48.9
			c-0.2-0.4-0.5-0.7-1-0.8c-1-0.2-1.7,0.2-2.3,0.9c-0.4,0.6-0.8,1.2-0.9,1.9c-0.4,1.5-0.4,3-0.1,4.5c0.2,0.8,0.4,1.5,0.8,2.1
			c1,1.5,2.8,1.4,3.7-0.2c0.1,0,0.1-0.1,0.1-0.1c0,0.5,0.1,0.8,0.1,1.2c0.6,0,1.3,0,1.9,0c0-4.7,0-9.3,0-14c-0.8,0-1.6,0-2.3,0
			C13.5,45.8,13.5,47.3,13.5,48.9z M13.4,55.1c0,0.4-0.1,0.7-0.3,1c-0.4,0.4-1,0.5-1.3,0c-0.3-0.3-0.4-0.7-0.5-1
			c-0.1-0.7-0.1-1.5-0.1-2.3c0.1-0.5,0.2-1,0.3-1.5c0-0.2,0.2-0.5,0.3-0.7c0.4-0.5,1-0.4,1.3,0.1c0.2,0.4,0.3,0.8,0.3,1.3
			c0,0.4,0,0.9,0,1.4C13.4,53.9,13.5,54.5,13.4,55.1z M3.2,44.7c-0.1,0-0.1,0-0.1,0.1c-0.9,4.5-1.8,8.9-2.7,13.4c0,0.1,0,0.1,0,0.1
			c0.8,0,1.4,0,2.1,0c0.1,0,0.1,0,0.1-0.1c0.1-0.5,0.2-1.1,0.3-1.7C3,56,3.1,55.5,3.2,55c0.8,0,1.6,0,2.4,0C5.8,56.2,6,57.3,6,58.4
			c0.8,0,1.6,0,2.3,0c-0.8-4.6-1.6-9.1-2.5-13.7C4.9,44.7,4.1,44.7,3.2,44.7z M3.4,53.2c0.4-2,0.7-4,1-6.1c0.3,2,0.6,4,0.9,6.1
			C4.7,53.2,4,53.2,3.4,53.2z M18.9,49c-0.8,0.6-1.2,1.4-1.5,2.4c-0.3,1-0.3,1.9-0.3,2.9c0,0.8,0.2,1.7,0.5,2.4
			c0.7,1.9,2.5,2.4,3.8,1.9c0.9-0.3,1.6-1.1,2-2.1c0.4-1,0.5-2,0.5-3.2c0-0.2,0-0.6,0.1-0.8c0-0.8-0.2-1.7-0.6-2.4
			C22.3,48.1,20.2,48,18.9,49z M21.3,55.5c0,0.2-0.2,0.5-0.3,0.7c-0.2,0.5-0.9,0.6-1.2,0.1c-0.2-0.3-0.3-0.7-0.4-1
			c-0.1-0.7-0.1-1.4-0.1-2.4c0.1-0.5,0.1-1.2,0.2-1.8c0.1-0.2,0.2-0.4,0.3-0.6c0.3-0.5,0.9-0.5,1.2,0c0.3,0.3,0.4,0.7,0.4,1.1
			C21.6,53,21.6,54.2,21.3,55.5z M38.4,49c-0.9-0.8-2.3-0.9-3.3-0.3c-0.8,0.5-1.4,1.2-1.7,2.1c-0.4,0.8-0.5,1.7-0.5,2.6
			c-0.1,1,0,1.9,0.3,2.8c0.4,1.1,1.2,2,2.3,2.3c1.1,0.3,2.3,0.1,3.5-0.3c0.1,0,0.1,0,0.1-0.1c0-0.2-0.1-0.5-0.1-0.8
			c0-0.3-0.1-0.6-0.1-0.9h-0.1c-0.5,0.2-1.1,0.3-1.7,0.3c-1.3,0-1.9-1.1-1.9-2.4c1.5,0,2.9,0,4.4,0c0-0.2,0-0.4,0-0.5
			c0.1-1,0.1-1.9-0.2-2.9C39.2,50.2,38.9,49.5,38.4,49z M37.6,52.5c-0.8,0-1.6,0-2.2,0c0-0.6,0.1-1.3,0.5-1.9c0.4-0.6,1.1-0.6,1.4,0
			c0.2,0.4,0.3,0.8,0.3,1.3C37.6,52.1,37.6,52.3,37.6,52.5z M49.8,21.2H53l0.6,1.8h1.9l-3-8.4h-2l-3.2,8.4h1.9L49.8,21.2z
			 M51.5,16.4l1.1,3.4h-2.2L51.5,16.4z M61.8,16.6h-1.6v0.9c-0.3-0.4-0.6-0.8-1-0.9c-0.3-0.1-0.6-0.1-0.6-0.2c-0.9,0-1.5,0.4-2,1
			c-0.4,0.7-0.7,1.4-0.7,2.4c0,1,0.2,1.7,0.7,2.3c0.4,0.6,1.1,0.9,1.9,0.9c0.6,0,1-0.1,1.3-0.4c0.2-0.1,0.4-0.3,0.5-0.6v0.5
			c0,0.6-0.1,1-0.2,1.3c-0.2,0.4-0.6,0.6-1.2,0.6c-0.4,0-0.7-0.2-0.9-0.3c-0.2-0.1-0.3-0.2-0.3-0.4h-1.8c0.1,0.6,0.4,1.1,0.9,1.4
			c0.4,0.4,1.1,0.5,1.9,0.5c1.4,0,2.2-0.4,2.7-1.1c0.3-0.5,0.4-1.1,0.4-1.9V16.6z M59.7,21.2c-0.3,0.3-0.6,0.4-0.9,0.5
			c-0.6,0-1-0.2-1.2-0.8c-0.2-0.3-0.2-0.7-0.2-1c0-0.5,0-0.8,0.1-1.1c0.2-0.5,0.6-0.8,1.2-0.8c0.4,0,0.7,0.2,1,0.5
			c0.3,0.2,0.4,0.7,0.4,1.3C60.1,20.5,60,20.9,59.7,21.2z M65.5,23.2c1.1,0,1.8-0.3,2.4-0.9c0.3-0.5,0.6-0.9,0.6-1.2h-1.7
			c0,0.2-0.2,0.4-0.3,0.5C66.3,21.9,66,22,65.6,22c-0.3,0-0.6-0.2-0.9-0.3c-0.3-0.2-0.6-0.7-0.6-1.3h4.6c0-0.6,0-1,0-1.3
			c-0.1-0.5-0.2-1-0.5-1.3c-0.3-0.5-0.6-0.8-1.1-1c-0.5-0.2-1-0.3-1.6-0.1c-1,0-1.7,0.3-2.3,0.9c-0.6,0.6-0.9,1.4-0.9,2.5
			c0,1.2,0.4,2,1,2.5C63.9,22.9,64.6,23.2,65.5,23.2z M64.6,18.2c0.2-0.2,0.6-0.4,0.9-0.3c0.4,0,0.7,0,1,0.3c0.3,0.3,0.5,0.5,0.5,1
			h-2.9C64.2,18.8,64.3,18.5,64.6,18.2z M71.1,19.6c0-0.4,0-0.7,0.1-1c0.2-0.4,0.6-0.7,1.2-0.7c0.4,0,0.8,0.2,0.9,0.5
			c0.1,0.1,0.1,0.4,0.1,0.7v3.9h1.7v-4.3c0-0.8-0.2-1.4-0.6-1.7c-0.5-0.3-1-0.5-1.6-0.5c-0.6,0-1,0.1-1.3,0.4
			c-0.2,0.1-0.4,0.4-0.6,0.7v-0.9h-1.6v6.3h1.7V19.6z M78.6,23.2c1,0,1.8-0.4,2.3-1.1c0.4-0.4,0.6-0.9,0.6-1.4h-1.7
			c0,0.3-0.2,0.6-0.3,0.8c-0.2,0.2-0.4,0.3-0.8,0.3c-0.5,0-0.9-0.3-1.1-0.8c-0.1-0.2-0.1-0.6-0.1-1.1c0-0.5,0-0.9,0.1-1.2
			c0.2-0.6,0.6-0.9,1.2-0.9c0.4,0,0.7,0.1,0.9,0.4c0.2,0.1,0.3,0.3,0.3,0.6l1.4,0.2c-0.1-0.9-0.4-1.6-0.9-1.9
			c-0.4-0.4-1.1-0.6-1.9-0.6c-0.9,0-1.7,0.3-2.2,0.9c-0.5,0.6-0.8,1.4-0.8,2.5c0,1,0.2,1.8,0.7,2.4C76.8,22.9,77.6,23.2,78.6,23.2z
			 M83.6,24c0,0.1-0.1,0.1-0.3,0.1s-0.4,0-0.5,0h-0.2l0,1.4c0.2,0,0.3,0,0.4,0c0,0,0.2,0,0.3,0c0.8,0,1.2-0.2,1.5-0.5
			c0.3-0.3,0.6-1,1-2.2l2.2-6.2h-1.8l-1.3,4.7l-1.3-4.7h-1.9l2.3,6.6c0,0.1,0,0.2-0.1,0.4C83.8,23.8,83.7,24,83.6,24z M53.7,28
			c-0.5-0.4-1.1-0.6-2-0.6H48v8.4h1.8v-3.1h1.8c1,0,1.7-0.2,2.2-0.6c0.5-0.4,0.8-1.1,0.6-2.1C54.4,29.1,54.2,28.5,53.7,28z M52.5,31
			c-0.3,0.2-0.6,0.3-1,0.3h-1.6v-2.5h1.6c0.4,0,0.7,0.1,1,0.3c0.2,0.2,0.3,0.5,0.3,0.9C52.8,30.4,52.8,30.8,52.5,31z M60.5,35.5
			c-0.1-0.2-0.1-0.3-0.1-0.5c0-0.2,0-0.5,0-0.7v-2.9c0-0.8-0.2-1.3-0.8-1.6c-0.6-0.3-1.2-0.4-1.9-0.4c-1.1,0-1.8,0.3-2.3,0.9
			c-0.3,0.3-0.5,0.7-0.5,1.3h1.6c0.1-0.3,0.2-0.5,0.3-0.6c0.3-0.2,0.5-0.3,0.9-0.3c0.3,0,0.6,0,0.8,0.1c0.2,0.1,0.3,0.3,0.3,0.6
			c0,0.2,0,0.4-0.3,0.5c0,0-0.3,0.1-0.6,0.1l-0.6,0.2c-0.7,0.1-1.2,0.2-1.5,0.4c-0.6,0.4-0.9,1-0.9,1.7c0,0.6,0.3,1,0.6,1.4
			c0.3,0.4,0.8,0.5,1.4,0.5c0.5,0,0.9-0.1,1.2-0.3c0.3-0.1,0.5-0.3,0.8-0.6c0,0.1,0,0.3,0,0.4c0,0,0.1,0.2,0.1,0.3h1.8v-0.3
			C60.6,35.6,60.5,35.6,60.5,35.5z M59,33.3c0,0.6-0.2,1-0.5,1.2c-0.3,0.2-0.7,0.3-1,0.3c-0.3,0-0.5-0.1-0.6-0.2
			c-0.2-0.1-0.3-0.3-0.3-0.6c0-0.3,0.1-0.6,0.4-0.7c0.1-0.2,0.4-0.3,0.7-0.3h0.4c0.2,0,0.4-0.1,0.5-0.1c0.1,0,0.2-0.1,0.3-0.1H59
			V33.3z M65,29.3c-0.5,0-0.9,0.1-1.2,0.4c-0.1,0.2-0.3,0.5-0.6,0.9v-1.1h-1.6v6.3h1.7v-3c0-0.5,0.1-0.8,0.2-1.1
			c0.2-0.4,0.7-0.6,1.3-0.6c0.1,0,0.1,0,0.2,0c0.1,0,0.2,0,0.3,0v-1.7c-0.1,0-0.1,0-0.1,0C65.1,29.4,65.1,29.4,65,29.3z M68.1,27.9
			h-1.7v1.7h-0.9v1.2l0.8,0.1v4c0,0.4,0.1,0.7,0.3,0.9c0.3,0.3,0.8,0.4,1.6,0.4H69v-1.3h-0.1h-0.1c-0.3,0-0.6-0.1-0.6-0.1
			c-0.1-0.1-0.1-0.2-0.1-0.5v-3.4h1v-1.2h-1V27.9z M73.2,29.4c-0.6,0-1,0.1-1.3,0.4c-0.2,0.1-0.4,0.4-0.6,0.7v-0.9h-1.6v6.3h1.7
			v-3.4c0-0.4,0-0.7,0.1-1c0.2-0.4,0.6-0.7,1.2-0.7c0.4,0,0.8,0.2,0.9,0.5c0.1,0.1,0.1,0.4,0.1,0.7v3.9h1.7v-4.3
			c0-0.8-0.2-1.4-0.6-1.7C74.5,29.6,73.9,29.4,73.2,29.4z M80.8,29.7c-0.4-0.2-0.9-0.3-1.6-0.1c-1,0-1.7,0.3-2.3,0.9
			C76.3,31.1,76,31.9,76,33c0,1.2,0.4,2,1,2.5c0.6,0.4,1.3,0.7,2.2,0.7c1.1,0,1.8-0.3,2.4-0.9c0.3-0.5,0.6-0.9,0.6-1.2h-1.7
			c0,0.2-0.2,0.4-0.3,0.5c-0.2,0.2-0.5,0.3-0.9,0.3c-0.3,0-0.6-0.2-0.9-0.3c-0.3-0.2-0.6-0.7-0.6-1.3h4.6c0-0.6,0-1,0-1.3
			c-0.1-0.5-0.2-1-0.5-1.3C81.6,30.2,81.3,29.9,80.8,29.7z M77.9,32.1c0.1-0.4,0.2-0.7,0.5-1c0.2-0.2,0.5-0.3,0.9-0.3
			c0.4,0,0.7,0,1,0.3c0.3,0.3,0.5,0.5,0.5,1H77.9z M86.4,29.3c-0.5,0-0.9,0.1-1.2,0.4c-0.1,0.2-0.3,0.5-0.6,0.9v-1.1H83v6.3h1.7v-3
			c0-0.5,0.1-0.8,0.2-1.1c0.2-0.4,0.7-0.6,1.3-0.6c0.1,0,0.1,0,0.2,0c0.1,0,0.2,0,0.3,0v-1.7c-0.1,0-0.1,0-0.1,0
			S86.6,29.4,86.4,29.3z"/>
	</g>
</g>
</svg>
