<?xml version="1.0" encoding="utf-8"?>
<!-- Generator: Adobe Illustrator 19.0.1, SVG Export Plug-In . SVG Version: 6.00 Build 0)  -->
<!DOCTYPE svg PUBLIC "-//W3C//DTD SVG 1.1//EN" "http://www.w3.org/Graphics/SVG/1.1/DTD/svg11.dtd">
<svg version="1.1" id="Layer_1" xmlns="http://www.w3.org/2000/svg" xmlns:xlink="http://www.w3.org/1999/xlink" x="0px" y="0px"
	 viewBox="0 0 120 36" style="enable-background:new 0 0 120 36;" xml:space="preserve">
<style type="text/css">
	.st0{fill:#00C1F3;}
	.st1{fill-rule:evenodd;clip-rule:evenodd;fill:#00C1F3;}
</style>
<g>
	<g>
		<path class="st0" d="M66.1,15.1c0.1,0,0.1-0.1,0.2-0.2c0,1.8,0.9,3,2.5,3.7c1.1,0.5,2.3,0.7,3.4,0.8c1.7,0,3.5,0,5.1-0.5
			c1.8-0.5,3.2-1.6,3.8-3.4c0.7-2.1,0.1-4.5-2.7-5.3c-0.8-0.2-1.7-0.4-2.6-0.6c-0.6-0.1-1.1-0.3-1.6-0.5c-0.3-0.1-0.7-0.4-0.6-0.9
			c0.1-0.4,0.4-0.6,0.8-0.8C75,7.2,75.5,7.2,76,7.3c0.7,0.2,1.2,0.7,1.1,1.5c0,0.1,0,0.2,0,0.3c1.6,0,3.2,0,4.8,0
			c0.2-0.5,0.2-1.3-0.2-1.8c-0.4-1.3-1.3-2-2.5-2.4c-0.9-0.3-1.8-0.4-2.8-0.5c-1.4-0.1-3,0-4.4,0.5c-1.4,0.4-2.5,1.2-3.1,2.6
			c-0.8,1.8-0.4,3.6,1.4,4.7c0.8,0.5,1.7,0.8,2.6,1c0.5,0.2,1.1,0.2,1.6,0.4c0.3,0.1,0.5,0.2,0.8,0.3c0.4,0.2,0.8,0.6,0.8,1.1
			c0,0.5-0.3,0.8-0.8,1.1c-0.9,0.4-1.9,0.3-2.8-0.2c-0.5-0.3-0.7-0.8-0.6-1.4c0-0.1,0.1-0.2,0.1-0.4c-3.1,0-6.1,0-9.1,0
			c0,0,0,0,0-0.1c0.3-0.1,0.6-0.3,0.9-0.4c1-0.3,2.1-0.7,3.1-1.1c0.3-0.2,0.5-0.4,0.6-0.8c0.2-0.8,0.3-1.7,0.1-2.5
			c-0.3-1.9-1.3-3.3-3.1-4.2c-1.5-0.7-3-0.9-4.6-0.7c-2.4,0.2-4.3,1.3-5.9,3.1c0,0-0.1,0-0.2,0.1c0.3-1.1,0.5-2,0.8-3
			c-1,0-1.8,0.2-2.6,0.5c-0.8,0.2-1.5,0.7-2.1,1.3c0.1-0.6,0.3-1.1,0.4-1.6c-0.1,0-0.3,0-0.4,0c-1.2,0-2.4,0-3.6,0
			c-0.8,0-0.6-0.2-0.8,0.6c-0.8,3.3-1.5,6.6-2.3,9.9c-0.3,1.2-0.5,2.3-0.8,3.5c1.6,0,3.2,0,4.8,0c0.2-0.9,0.4-1.8,0.6-2.7
			c0.3-1.2,0.5-2.5,0.9-3.7c0.3-1.1,1-2.1,2-2.8c0.6-0.3,1.1-0.5,1.9-0.5c0,0.1-0.1,0.1-0.1,0.2c-0.7,1.6-1.1,3.3-0.8,5
			c0.3,2,1.2,3.5,3,4.4c1.6,0.8,3.3,0.9,5,0.6C62.5,18.9,64.6,17.5,66.1,15.1z M60.7,15.3c-0.5,0.4-1.1,0.7-1.9,0.6
			c-0.8-0.1-1.3-0.5-1.5-1.3c-0.3-1-0.2-1.9,0.1-2.8c0.3-1.3,0.9-2.5,1.8-3.4c0.4-0.4,0.9-0.7,1.4-0.8c1.1-0.2,1.8,0.4,2.1,1.6
			c0,0.4,0,0.6,0.1,1C62.6,12.1,62,13.9,60.7,15.3z M114.2,1.6c-1.6,0-3.2,0-4.7,0c-0.2,1.1-0.5,2.1-0.7,3.1c0,0.2-0.1,0.3-0.4,0.3
			c-0.8,0-1.5,0-2.3,0c-0.1,0-0.3,0-0.5,0c0.2-0.6,0.3-1,0.6-1.5c0.3-0.5,1-0.4,1.5-0.5c0.1-0.9,0.3-1.7,0.5-2.6
			c-1.4-0.1-2.7-0.2-4,0.1c-1.4,0.3-2.3,1.1-2.8,2.4c-0.1,0.6-0.3,1.3-0.5,1.9c-0.1,0.2-0.2,0.3-0.4,0.3c-0.6,0-1.3,0-1.9,0
			c-0.2,0-0.3,0-0.4,0.3c-0.1,0.6-0.2,1.2-0.4,1.8c-0.1,0.3-0.2,0.7-0.3,1.1c-0.1-0.1-0.1-0.1-0.1-0.1c-0.1-0.1-0.1-0.2-0.2-0.3
			c-0.6-1.3-1.5-2.2-2.8-2.8c-1.6-0.8-3.4-0.9-5.1-0.5c-4.8,0.9-7.8,5.6-7.2,9.8c0.3,1.9,1.2,3.3,2.9,4.2c1.7,1,3.5,1.1,5.4,0.8
			c4.9-0.9,7.7-5.5,7.3-9.5c0-0.6-0.2-1.1-0.3-1.7c0.8,0,1.6,0,2.5,0c-0.8,3.6-1.6,7.2-2.4,10.7c1.7,0,3.3,0,5.2,0.3
			c0,0,0.2-0.2,0.2-0.3c0.6-2.7,1.1-5.3,1.7-8c0.1-0.9,0.3-1.8,0.5-2.6c1,0,1.9,0,2.8,0c0,0,0,0,0,0.1c-0.3,1.2-0.5,2.3-0.8,3.5
			c-0.3,1.4-0.6,2.9-0.8,4.3c-0.2,1.4,0.5,2.4,1.9,2.7c1.4,0.3,2.8,0.2,4.2,0.1c0.1,0,0.2-0.2,0.3-0.3c0.2-0.4,0.3-0.8,0.4-1.3
			c0.1-0.6,0.2-1.1,0.4-1.7c-0.2,0.1-0.5,0.1-0.7,0.1s-0.4-0.1-0.7-0.1c-0.7-0.1-1-0.4-0.8-1c0.3-1.3,0.5-2.5,0.8-3.7
			c0.1-1,0.4-1.9,0.6-2.9c0.7,0,1.4,0,2.1,0c0.1,0,0.3-0.1,0.3-0.2c0.2-1,0.4-2,0.7-3.1c-0.8,0-1.6,0-2.4,0
			C113.7,3.8,113.9,2.7,114.2,1.6z M90.9,15.2c-0.6,0.5-1.1,0.8-1.9,0.7c-1-0.2-1.6-0.8-1.7-1.8c-0.2-2.2,0.5-4.1,2.1-5.7
			c0.3-0.3,0.8-0.6,1.3-0.7c1.1-0.2,1.9,0.4,2.1,1.6c0,0.3,0,0.6,0.1,0.9C92.8,12.1,92.2,13.8,90.9,15.2z M17,9.1
			C17,9.2,17,9.2,17,9.1c-0.6,3.4-1.3,6.6-2,9.8c1.8,0,3.6,0,5.4,0c1.4-6.3,2.8-12.6,4.2-18.9h-0.1c-2.4,0-4.8,0-7.2,0
			C17,0,17,0.1,16.9,0.3c-1.6,3.3-3.1,6.6-4.7,9.8c-0.1,0.1-0.1,0.3-0.2,0.4c0,0,0,0-0.1,0c-0.1-3.4-0.2-6.9-0.3-10.3
			c-2.5,0-5,0-7.5,0C2.8,6.5,1.4,12.7,0,19.1c1.8,0,3.7,0,5.5,0c0.8-3.3,1.6-6.6,2.4-9.8c0,0,0,0,0.1,0c0,3.3,0.1,6.5,0.2,9.7
			c0.1,0,0.1,0,0.2-0.1c1.2,0,2.4,0,3.6,0c0.1,0,0.2-0.2,0.3-0.3c1.5-3.1,3-6.1,4.5-9.2C16.8,9.4,16.9,9.2,17,9.1z M29,14.6
			c0.3,2.3,1.6,3.8,3.8,4.5c1.4,0.5,2.9,0.4,4.3,0.1c2.9-0.6,5-2.3,6.1-5c0-0.1,0-0.2,0.1-0.4c-0.2,0-0.3,0-0.4,0
			c-1.5,0-3.1,0-4.6,0c-0.2,0-0.4,0.1-0.5,0.3c-0.3,0.6-0.7,1.1-1.3,1.5c-1.1,0.6-2.2,0.1-2.6-1c-0.1-0.4-0.2-0.8-0.2-1.2
			c0-1.3,0.4-2.6,1.2-3.8c0.5-0.7,1.1-1.4,2-1.6c0.9-0.2,1.5,0.2,1.8,1c0.1,0.4,0.1,0.7,0.2,1.2c1.6,0,3.3,0,5.2,0
			c0.1,0,0.2-0.1,0.2-0.2c0-0.3,0-0.5-0.1-0.8c-0.2-1.5-0.8-2.8-2.1-3.6c-0.9-0.6-2-0.9-3.1-1c-1.8-0.2-3.6,0.1-5.3,0.9
			C30.4,7.2,28.4,11,29,14.6z M26.7,19c1-4.7,2.1-9.4,3.1-14c-1.6,0-3.3,0-5,0c-1.1,4.7-2.2,9.4-3.2,14C23.3,19,25,19,26.7,19z
			 M29.4,3.2c0.8,0,0.8,0,1-0.8c0.1-0.8,0.3-1.5,0.5-2.3c-1.7-0.1-3.4-0.1-5,0c-0.2,1-0.4,2.1-0.7,3.1c0.1,0,0.3,0,0.4,0
			C26.8,3.2,28.1,3.2,29.4,3.2z M19.8,24.2h-2.2l-5.1,9.1h1l1-1.9h3.4l0.2,1.9h1L19.8,24.2z M16.3,29.8l2-3.6l0.4,3.6H16.3z
			 M27.2,27.6c-0.1-0.5-0.4-0.8-0.8-1c-0.2-0.1-0.5-0.1-1-0.1c-1,0-1.8,0.3-2.4,1c-0.7,0.7-1.1,1.5-1.3,2.5
			c-0.2,1.1-0.1,1.9,0.3,2.5c0.4,0.6,1,0.9,1.9,0.9c0.6,0,1.1-0.1,1.5-0.4c0.2-0.1,0.4-0.3,0.7-0.6L26,32.8
			c-0.1,0.6-0.3,1.1-0.5,1.4c-0.3,0.4-0.8,0.6-1.4,0.6c-0.4,0-0.7-0.1-0.9-0.3C23.1,34.4,23,34.2,23,34h-2c-0.1,0.7,0.1,1.1,0.6,1.5
			c0.5,0.3,1.1,0.5,2,0.5c1.5,0,2.5-0.3,3.2-1.1c0.4-0.5,0.7-1.1,0.9-2l1.4-6.4h-1.7L27.2,27.6z M26.7,29.9
			c-0.1,0.6-0.3,1.2-0.8,1.3c-0.4,0.3-0.8,0.5-1.2,0.5c-0.6,0-1-0.2-1.1-0.8c-0.1-0.2-0.1-0.6,0-1c0.1-0.4,0.3-0.8,0.5-1.1
			c0.4-0.6,0.9-0.9,1.5-0.9c0.5,0,0.8,0.1,1,0.5C26.8,28.8,26.9,29.3,26.7,29.9z M34.9,26.8c-0.5-0.2-0.9-0.3-1.5-0.3
			c-0.9,0-1.7,0.3-2.5,0.9c-0.7,0.6-1.2,1.5-1.5,2.7c-0.3,1.3-0.1,2.2,0.4,2.7s1.2,0.8,2.1,0.8c1.1,0,1.9-0.4,2.7-1
			c0.4-0.4,0.7-0.8,0.9-1.2h-1.8c-0.2,0.2-0.3,0.4-0.5,0.5c-0.3,0.2-0.7,0.3-1,0.3s-0.6-0.1-0.8-0.3c-0.4-0.3-0.5-0.7-0.4-1.4h4.6
			c0.2-0.5,0.3-1,0.3-1.3c0.1-0.5,0-1-0.2-1.4C35.5,27.3,35.2,27,34.9,26.8z M34.1,29.2h-2.8c0.1-0.4,0.3-0.8,0.7-1
			c0.2-0.2,0.6-0.4,1-0.4c0.4,0,0.7,0.1,0.9,0.4C34.1,28.5,34.2,28.7,34.1,29.2z M41.2,26.5c-0.6,0-1,0.1-1.5,0.4
			c-0.2,0.2-0.5,0.4-0.8,0.8l0.2-1h-1.7L36,33.3h1.8l0.8-3.7c0.1-0.4,0.2-0.7,0.4-1c0.3-0.5,0.8-0.8,1.4-0.8c0.5,0,0.8,0.1,0.9,0.5
			c0,0.2,0,0.4-0.1,0.8l-0.9,4.1h1.8l1-4.5c0.1-0.8,0-1.4-0.3-1.8C42.4,26.7,41.9,26.5,41.2,26.5z M48.4,28.9c0-0.1,0-0.2,0-0.3
			h-0.1L48.4,28.9z M48,30.6c-0.1,0.4-0.3,0.6-0.5,0.9c-0.2,0.3-0.6,0.4-1,0.4c-0.5,0-0.9-0.3-1-0.8c-0.1-0.3,0-0.8,0.1-1.2
			c0.1-0.4,0.3-0.9,0.5-1.2c0.3-0.6,0.8-0.9,1.4-0.9c0.3,0,0.6,0.1,0.8,0.4c0.1,0.1,0.1,0.3,0.1,0.4h1.7c0.1-1-0.1-1.6-0.5-2
			c-0.5-0.4-1.2-0.6-2-0.6c-1,0-1.9,0.4-2.6,1c-0.6,0.6-1.1,1.6-1.4,2.7c-0.2,1-0.1,1.9,0.3,2.5c0.4,0.6,1.1,1,2.2,1
			c1.2,0,2-0.3,2.8-1.1c0.4-0.5,0.7-1,0.9-1.5H48z M53.3,31.4l-0.5-5h-2l1,7.1c0,0,0,0.1-0.2,0.4c-0.1,0.3-0.3,0.4-0.4,0.5
			c-0.2,0.1-0.4,0.2-0.5,0.2c-0.1,0-0.3,0-0.5,0h-0.3l-0.2,1.3c0.2,0,0.4,0,0.5,0c0.1,0,0.2,0,0.4,0c0.8,0,1.3-0.2,1.7-0.5
			c0.4-0.3,0.8-1.1,1.6-2.4l3.8-6.6h-1.9L53.3,31.4z M68.3,25c-0.5-0.4-1.2-0.7-2.1-0.7h-4.1l-2,9.1H62l0.7-3.3h1
			c1,0,1.8-0.2,2.7-0.6c0.6-0.5,1-1.2,1.3-2.3C68.9,26.2,68.8,25.5,68.3,25z M66.6,27.1c-0.1,0.5-0.3,0.8-0.6,1
			c-0.3,0.3-0.6,0.4-1.1,0.4h-1.8l0.6-2.7h1.8c0.4,0,0.7,0.1,0.9,0.3C66.7,26.3,66.7,26.6,66.6,27.1z M74,26.8
			c-0.5-0.3-1.1-0.5-1.9-0.5c-1.1,0-2,0.3-2.6,0.9c-0.3,0.3-0.6,0.8-0.8,1.4h1.7c0.1-0.2,0.2-0.4,0.4-0.6c0.2-0.2,0.5-0.3,1-0.3
			c0.3,0,0.6,0.1,0.8,0.2c0.2,0.1,0.3,0.3,0.2,0.6c0,0.2-0.2,0.4-0.5,0.5c-0.2,0.1-0.4,0.1-0.8,0.2l-0.6,0.2
			c-0.8,0.1-1.3,0.3-1.7,0.5c-0.8,0.4-1.2,1-1.4,1.8c-0.2,0.7,0,1.2,0.3,1.5c0.3,0.3,0.8,0.5,1.4,0.5c0.5,0,0.9-0.2,1.4-0.4
			c0.4-0.2,0.7-0.4,1-0.7c-0.1,0.1-0.1,0.3-0.1,0.4c0,0.1,0,0.2,0.1,0.4h1.8l0.1-0.3c-0.1,0-0.1-0.1-0.2-0.2s-0.1-0.2,0-0.5
			s0.1-0.6,0.2-0.8l0.7-3.1C74.7,27.6,74.5,27.1,74,26.8z M72.2,30.7c-0.2,0.6-0.4,0.9-0.8,1.2c-0.3,0.3-0.7,0.4-1.1,0.4
			c-0.2,0-0.4,0-0.6-0.2c-0.2-0.1-0.2-0.3-0.1-0.6c0.1-0.4,0.3-0.6,0.6-0.8c0.2-0.1,0.5-0.2,0.9-0.3l0.4-0.1c0.2,0,0.3,0,0.5-0.1
			c0.1,0,0.2-0.1,0.4-0.2L72.2,30.7z M79.8,26.4c-0.6,0-1,0.1-1.4,0.4c-0.2,0.1-0.5,0.4-0.9,0.9l0.3-1.2h-1.7l-1.4,6.8h1.8l0.7-3.2
			c0.1-0.6,0.3-0.9,0.5-1.2c0.4-0.4,0.8-0.7,1.6-0.7c0,0,0.1,0,0.2,0c0.1,0.1,0.2,0.1,0.3,0.1l0.4-1.8
			C80.1,26.4,80.1,26.4,79.8,26.4z M82.5,32.1c-0.3,0-0.5-0.1-0.6-0.1c-0.1,0-0.1-0.2,0-0.5l0.8-3.6h1.1l0.3-1.2H83l0.4-1.9h-1.8
			l-0.4,1.9h-0.9L80,28v0.1h1l-0.9,4.1C80,32.5,80,32.8,80.2,33c0.2,0.4,0.8,0.6,1.6,0.5l0.8-0.1l0.3-1.3c-0.1,0-0.1,0-0.2,0
			C82.6,32.1,82.6,32.1,82.5,32.1z M88.7,26.5c-0.6,0-1,0.1-1.5,0.4c-0.2,0.2-0.5,0.4-0.8,0.8l0.2-1h-1.7l-1.4,6.7h1.8l0.8-3.7
			c0.1-0.4,0.2-0.7,0.4-1c0.3-0.5,0.8-0.8,1.4-0.8c0.5,0,0.8,0.1,0.9,0.5c0,0.2,0,0.4-0.1,0.8l-0.9,4.1h1.8l1-4.5
			c0.2-0.8,0.1-1.4-0.3-1.8C89.9,26.7,89.4,26.5,88.7,26.5z M97.4,30.4c0.2-0.5,0.3-1,0.3-1.3c0.1-0.5,0-1-0.2-1.4
			c-0.2-0.5-0.5-0.8-0.9-1c-0.5-0.2-0.9-0.3-1.5-0.3c-0.9,0-1.7,0.3-2.5,0.9c-0.7,0.6-1.2,1.5-1.5,2.7c-0.3,1.3-0.1,2.2,0.4,2.7
			c0.5,0.5,1.2,0.8,2.1,0.8c1.1,0,1.9-0.4,2.7-1c0.4-0.4,0.7-0.8,0.9-1.2h-1.8c-0.2,0.2-0.3,0.4-0.5,0.5c-0.3,0.2-0.7,0.3-1,0.3
			s-0.6-0.1-0.8-0.3c-0.4-0.3-0.5-0.7-0.4-1.4H97.4z M93.8,28.3c0.2-0.2,0.6-0.4,1-0.4c0.4,0,0.7,0.1,0.9,0.4c0.2,0.2,0.3,0.5,0.2,1
			h-2.8C93.2,28.8,93.4,28.5,93.8,28.3z M101.4,26.8c-0.2,0.1-0.5,0.4-0.9,0.9l0.3-1.2h-1.7l-1.4,6.8h1.8l0.7-3.2
			c0.1-0.6,0.3-0.9,0.5-1.2c0.4-0.4,0.8-0.7,1.6-0.7c0,0,0.1,0,0.2,0c0.1,0.1,0.2,0.1,0.3,0.1l0.4-1.8c-0.1-0.1-0.1-0.1-0.4-0.1
			C102.1,26.4,101.7,26.5,101.4,26.8z M119.7,5.9c-0.1-0.2-0.3-0.4-0.6-0.6c-0.2-0.2-0.5-0.3-0.8-0.3c-0.3,0-0.6,0.1-1,0.3
			c-0.2,0.1-0.4,0.3-0.6,0.6c-0.2,0.3-0.3,0.6-0.3,0.9c0,0.4,0.2,0.7,0.3,0.9c0.1,0.2,0.3,0.4,0.6,0.6c0.3,0.2,0.6,0.3,0.9,0.3
			c0.4,0,0.6-0.1,0.9-0.3c0.2-0.1,0.4-0.3,0.6-0.6c0.2-0.3,0.3-0.6,0.3-0.9C120,6.5,119.9,6.2,119.7,5.9z M119.2,8.1
			c-0.3,0.1-0.5,0.2-0.8,0.2c-0.3,0-0.5,0-0.8-0.2c-0.2-0.1-0.3-0.2-0.5-0.5c-0.1-0.3-0.2-0.5-0.2-0.8c0-0.3,0-0.5,0.2-0.8
			c0.1-0.2,0.2-0.3,0.5-0.5c0.2-0.1,0.4-0.2,0.7-0.2c0.3,0,0.5,0.1,0.9,0.2c0.2,0.1,0.3,0.2,0.5,0.5c0.1,0.3,0.2,0.5,0.2,0.8
			c0,0.3,0,0.5-0.2,0.8C119.6,7.8,119.5,8,119.2,8.1z M118.6,7.1c-0.1,0-0.1,0-0.2-0.1c0.1,0,0.3-0.1,0.4-0.2
			c0.1-0.1,0.2-0.2,0.2-0.4c0-0.1,0-0.2-0.1-0.3c-0.1-0.1-0.2-0.1-0.3-0.2c-0.1-0.1-0.3-0.1-0.5-0.1h-0.6v1.9c0,0,0.1,0,0.2,0V7h0.3
			c0.1,0,0.2,0,0.3,0.1c0,0.1,0.1,0.2,0.3,0.5l0.2,0.3h0.4l-0.3-0.4C118.8,7.3,118.7,7.2,118.6,7.1z M118.2,6.7h-0.4l0-0.7h0.3
			c0.1,0,0.2,0.1,0.3,0.1c0.1,0,0.1,0,0.2,0.1c0.1,0.1,0.1,0.1,0.1,0.2c0,0.1,0,0.1-0.1,0.2C118.5,6.6,118.4,6.7,118.2,6.7z"/>
	</g>
</g>
</svg>
