<?xml version="1.0" encoding="utf-8"?>
<!-- Generator: Adobe Illustrator 19.0.1, SVG Export Plug-In . SVG Version: 6.00 Build 0)  -->
<!DOCTYPE svg PUBLIC "-//W3C//DTD SVG 1.1//EN" "http://www.w3.org/Graphics/SVG/1.1/DTD/svg11.dtd">
<svg version="1.1" id="Layer_1" xmlns="http://www.w3.org/2000/svg" xmlns:xlink="http://www.w3.org/1999/xlink" x="0px" y="0px"
	 viewBox="0 0 137 42.8" style="enable-background:new 0 0 137 42.8;" xml:space="preserve">
<style type="text/css">
	.st0{fill:#00C1F3;}
</style>
<g>
	<g>
		<path class="st0" d="M44.9,26.3c-1.9,0-3.6,0-5.3,0c-0.6,0-1,0.1-1.4,0.7c-1,1.4-2,2.8-3,4.2c-0.1,0-0.2,0-0.2,0
			c0-1.5,0-3.1,0-4.8c-1.8,0-3.5,0-5.2,0c0-8.8,0-17.4,0-26.2c-0.1,0-0.1,0-0.2-0.1c-7.3,10.6-14.7,21-22.1,31.7
			c5.8,0,11.4,0,17.1,0c0,3.6,0,7,0,10.6c1.7,0,3.4,0,5.2,0c0-3.5,0-7,0-10.6c0.4,0,0.7,0,1,0c3.2,0,6.4,0,9.6,0
			c0.5,0,0.8-0.2,1.1-0.6c1-1.5,2-2.9,3-4.3C44.7,26.8,44.8,26.5,44.9,26.3z M24.4,26.3c-2.1,0-4.2,0-6.4,0c2.1-3.1,4.2-6.1,6.4-9.3
			C24.4,20.2,24.4,23.3,24.4,26.3z M50.6,30.3c0.5-0.3,1.1-0.4,1.7-0.4c0.8,0.1,1.6,0.4,2.5,0.6c0.7-1.1,1.5-2.3,2.3-3.5
			c-1.7-0.8-3.4-1-5.1-1c-2.4,0.1-4.6,0.7-6.3,2.5c-2.2,2.5-1.6,5.3,1.4,6.7c0.3,0.1,0.6,0.2,0.8,0.3c0.5,0.2,1.1,0.4,1.7,0.7
			c0.3,0.1,0.7,0.6,0.7,0.8c0,0.4-0.4,0.9-0.7,1c-0.6,0.2-1.4,0.3-2,0.2c-1.1-0.3-2.1-0.8-3.3-1.3c-0.7,1.2-1.6,2.4-2.5,3.8
			c2.8,1.8,5.7,2.2,8.9,1.5c2.3-0.5,4.1-1.8,5.1-4c0.9-2.2,0.3-3.9-1.7-5c-0.7-0.4-1.5-0.7-2.2-1c-0.5-0.2-0.9-0.4-1.3-0.6
			C50,31.2,49.9,30.6,50.6,30.3z M5.5,34.4c-1.6,2.5-3.4,4.9-5.1,7.4c-0.2,0.2-0.3,0.4-0.4,0.7c2.1,0,4.1,0,6,0
			c0.3-0.1,0.8-0.4,1-0.6c1.8-2.5,3.5-4.9,5.2-7.4c0.2-0.2,0.3-0.4,0.5-0.8c-2.1,0-4,0-6,0.1C6.1,33.8,5.8,33.9,5.5,34.4z M65.8,0.1
			l-1.9,5.8h0.8l0.6-1.8h1l0.6,1.8h0.8l-2-5.8H65.8z M65.3,3.4l0.6-1.7c0.2-0.3,0.2-0.6,0.3-1c0.1,0.4,0.2,0.7,0.3,1.1l0.6,1.7
			L65.3,3.4z M71.4,3.4c0.1-0.8,0.1-1.8,0.1-2.5c0.2,0.6,0.4,1.4,0.7,2.2l0.9,2.7h0.6l1-2.7c0.2-0.8,0.5-1.5,0.7-2.2
			c0,0.7,0.1,1.7,0.1,2.5l0.1,2.5h0.7l-0.4-5.8h-1l-1,2.8c-0.2,0.7-0.5,1.4-0.6,2c-0.2-0.6-0.4-1.3-0.6-2l-1-2.8h-1l-0.1,5.8h0.7
			L71.4,3.4z M81.6,5.2h-2.5V3.1h1.2V2.5h-2.2V0.7h1.3V0.1h-3.1v5.7h3.3V5.2z M86.7,4.4c-0.2-0.6-0.4-1.1-0.9-1.2
			C86.4,3,87,2.5,87,1.7c0-0.4-0.2-0.9-0.5-1.1c-0.4-0.4-0.9-0.5-1.7-0.5c-0.5,0-1,0-1.4,0.1l0,5.8h0.8V3.5h0.7
			c0.7,0,1.1,0.3,1.2,1.1c0.2,0.7,0.3,1.3,0.4,1.4h0.8C87.1,5.8,87,5.2,86.7,4.4z M84.9,2.8V2.7h-0.7V0.6c0.1,0,0.3,0,0.7,0
			c0.7,0,1.3,0.3,1.3,1.1C86.2,2.3,85.7,2.8,84.9,2.8z M89.8,0.1H89v5.8h0.8V0.1z M96,5.8l-0.1-0.6c-0.3,0.1-0.7,0.2-1.2,0.2
			c-1.4,0-2.2-0.9-2.2-2.3c0-1.5,0.8-2.4,2.2-2.4c0.5,0,0.9,0.1,1.2,0.2l0.2-0.7C95.9,0.1,95.4,0,94.7,0c-1.8,0-3,1.3-3,3.1
			C91.7,5,92.9,6,94.5,6C95.2,6,95.8,5.9,96,5.8z M102.5,5.9l-2-5.8h-0.9l-1.9,5.8h0.8l0.6-1.8h1l0.6,1.8H102.5z M99.1,3.4l0.6-1.7
			c0.2-0.3,0.2-0.6,0.3-1c0.1,0.4,0.2,0.7,0.3,1.1l0.6,1.7L99.1,3.4z M107.6,2.6c0,0.8,0.1,1.5,0.1,2.3c-0.2-0.6-0.6-1.2-1-1.9
			l-1.8-2.9h-0.8L103.9,6h0.7V3.6c0-1,0-1.7,0-2.4c0.3,0.6,0.7,1.2,1.1,1.9l1.8,2.9h0.8V0.2h-0.7V2.6z M65.8,12.4l-1.9,5.8h0.8
			l0.6-1.8h1l0.6,1.8h0.8l-2-5.8H65.8z M65.3,15.6l0.6-1.7c0.2-0.3,0.2-0.6,0.3-1c0.1,0.4,0.2,0.7,0.3,1.1l0.6,1.7L65.3,15.6z
			 M71.7,17.6c-0.5,0-0.9-0.2-1.3-0.4l-0.2,0.7c0.3,0.3,0.9,0.4,1.5,0.4c1.3,0,2-0.8,2-1.7c0-0.8-0.5-1.3-1.5-1.7
			c-0.7-0.3-1.1-0.5-1.1-1.1c0-0.4,0.3-0.9,1.1-0.9c0.5,0,0.9,0.1,1.1,0.2l0.2-0.6c-0.3-0.1-0.7-0.2-1.3-0.2c-1.1,0-1.9,0.7-1.9,1.6
			c0,0.8,0.6,1.3,1.5,1.6c0.8,0.2,1.1,0.5,1.1,1.1C72.9,17.2,72.5,17.6,71.7,17.6z M76.7,17.6c-0.5,0-0.9-0.2-1.3-0.4l-0.2,0.7
			c0.3,0.3,0.9,0.4,1.5,0.4c1.3,0,2-0.8,2-1.7c0-0.8-0.5-1.3-1.5-1.7c-0.7-0.3-1.1-0.5-1.1-1.1c0-0.4,0.3-0.9,1.1-0.9
			c0.5,0,0.9,0.1,1.1,0.2l0.2-0.6c-0.3-0.1-0.7-0.2-1.3-0.2c-1.1,0-1.9,0.7-1.9,1.6c0,0.8,0.6,1.3,1.5,1.6c0.8,0.2,1.1,0.5,1.1,1.1
			C77.9,17.2,77.5,17.6,76.7,17.6z M80.3,15.3c0,1.7,1,2.9,2.6,3c1.5,0,2.7-1.1,2.7-3c0-1.7-1-3-2.6-3
			C81.4,12.3,80.3,13.5,80.3,15.3z M83,12.9c1.2,0,1.8,1.2,1.8,2.4c0,1.2-0.6,2.3-1.8,2.3c-1.1,0-1.8-1-1.8-2.3
			C81.2,14,81.8,12.9,83,12.9z M90.1,18.2c0.7,0,1.3-0.1,1.5-0.2l-0.1-0.6c-0.3,0.1-0.7,0.2-1.2,0.2c-1.4,0-2.2-0.9-2.2-2.3
			c0-1.5,0.8-2.4,2.2-2.4c0.5,0,0.9,0.1,1.2,0.2l0.2-0.6c-0.2-0.1-0.7-0.2-1.4-0.2c-1.8,0-3,1.2-3,3C87.3,17.2,88.5,18.2,90.1,18.2z
			 M94.2,18.2v-5.8h-0.8v5.8H94.2z M97.9,12.4L96,18.2h0.8l0.6-1.8h1l0.6,1.8h0.8l-2-5.8H97.9z M99.1,15.7h-1.8l0.6-1.7
			c0.2-0.3,0.2-0.6,0.3-1c0.1,0.4,0.2,0.7,0.3,1.1L99.1,15.7L99.1,15.7z M103.8,18.1V13h1.8v-0.6h-4.3V13h1.7v5.1H103.8z
			 M107.2,18.2h0.8v-5.8h-0.8V18.2z M112.5,12.3c-1.6,0-2.7,1.2-2.7,3c0,1.7,1,2.9,2.6,3c1.5,0,2.7-1.1,2.7-3
			C115.1,13.6,114.1,12.3,112.5,12.3z M112.5,17.6c-1.1,0-1.8-1-1.8-2.3c0-1.3,0.6-2.4,1.8-2.4s1.8,1.2,1.8,2.4
			C114.3,16.5,113.7,17.6,112.5,17.6z M120.5,14.9c0,0.8,0.1,1.5,0.1,2.3c-0.2-0.6-0.6-1.2-1-1.9l-1.8-2.9H117l-0.2,5.8h0.7v-2.4
			c0-1,0-1.7,0-2.4c0.3,0.6,0.7,1.2,1.1,1.9l1.8,2.9h0.8v-5.8h-0.7V14.9z M129.4,12.3c-1.6,0-2.7,1.2-2.7,3c0,1.7,1,2.9,2.6,3
			c1.5,0,2.7-1.1,2.7-3C132,13.6,131,12.3,129.4,12.3z M129.4,17.6c-1.1,0-1.8-1-1.8-2.3c0-1.3,0.6-2.4,1.8-2.4
			c1.2,0,1.8,1.2,1.8,2.4C131.2,16.5,130.6,17.6,129.4,17.6z M137,13v-0.6h-3.1v5.7h0.8v-2.6h1.2v-0.6h-2.2V13H137z M65.8,24.6
			l-1.9,5.8h0.8l0.6-1.8h1l0.6,1.8h0.8l-2-5.8H65.8z M65.3,27.9l0.6-1.7c0.2-0.3,0.2-0.6,0.3-1c0.1,0.4,0.2,0.7,0.3,1.1l0.6,1.7
			L65.3,27.9z M72,24.6c-0.6,0-1.1,0.1-1.6,0.1l0,5.7c0.4,0,0.9,0,1.4,0c1.1,0,1.9-0.2,2.5-0.8c0.5-0.5,0.8-1.3,0.8-2.2
			c0-1-0.3-1.6-0.8-2.1C73.8,24.8,73.1,24.6,72,24.6z M71.9,29.8c-0.3,0-0.6,0-0.8,0v-4.5c0.2-0.1,0.5-0.1,0.9-0.1
			c1.5,0,2.3,0.8,2.3,2.2C74.3,28.9,73.5,29.8,71.9,29.8z M79.3,27.4c-0.3,0.7-0.6,1.4-0.7,2.1c-0.1-0.6-0.4-1.3-0.6-2.1l-0.9-2.8
			h-0.8l2,5.8h0.8l2-5.8h-0.8L79.3,27.4z M83.4,27.6h1.2V27h-2.2v-1.8h1.3v-0.6h-3.1v5.7h3.3v-0.6h-2.5V27.6z M88.6,28h0.7
			c0.7,0,1.1,0.3,1.2,1.1c0.2,0.7,0.3,1.3,0.4,1.4h0.8c-0.2-0.2-0.3-0.8-0.5-1.6c-0.2-0.6-0.4-1.1-0.9-1.2c0.6-0.2,1.1-0.7,1.1-1.5
			c0-0.4-0.2-0.9-0.5-1.1c-0.4-0.4-0.9-0.5-1.7-0.5c-0.5,0-1,0-1.4,0.1l0.1,5.8h0.7V28z M88.6,25.1c0.1,0,0.3,0,0.7,0
			c0.7,0,1.3,0.3,1.3,1.1c0,0.6-0.5,1.1-1.3,1.1v-0.1h-0.7V25.1z M92.8,25.2h1.7v5.1h0.8v-5.1h1.8v-0.6h-4.3V25.2z M98.7,24.6v5.8
			h0.8v-5.8H98.7z M102.7,29.9c-0.5,0-0.9-0.2-1.3-0.4l-0.2,0.7c0.3,0.3,0.9,0.4,1.5,0.4c1.3,0,2-0.8,2-1.7c0-0.8-0.5-1.3-1.5-1.7
			c-0.7-0.3-1.1-0.5-1.1-1.1c0-0.4,0.3-0.9,1.1-0.9c0.5,0,0.9,0.1,1.1,0.2l0.2-0.6c-0.3-0.1-0.7-0.2-1.3-0.2c-1.1,0-1.9,0.7-1.9,1.6
			c0,0.8,0.6,1.3,1.5,1.6c0.8,0.2,1.1,0.5,1.1,1.1C103.9,29.5,103.5,29.9,102.7,29.9z M106.6,30.4h0.8v-5.8h-0.8V30.4z M113.1,27.1
			c0,0.8,0.1,1.5,0.1,2.3c-0.2-0.6-0.6-1.2-1-1.9l-1.8-2.9h-0.8l-0.1,5.8h0.7V28c0-1,0-1.7,0-2.4c0.3,0.6,0.7,1.2,1.1,1.9l1.7,3h0.8
			v-5.8h-0.7V27.1z M118.5,27.9h1.2v1.7c-0.2,0.1-0.5,0.1-1,0.1c-1.3,0-2.2-0.8-2.2-2.3c0-1.4,0.9-2.3,2.3-2.3c0.6,0,1,0.1,1.3,0.2
			l0.2-0.6c-0.2-0.1-0.7-0.2-1.4-0.2c-1.9,0-3.1,1.3-3.1,3c0,0.9,0.3,1.7,0.7,2c0.5,0.6,1.2,0.8,2.1,0.8c0.8,0,1.4-0.2,1.8-0.3v-2.7
			h-1.9V27.9z M65.8,36.8l-1.9,5.8h0.8l0.6-1.8h1l0.6,1.8h0.8l-2-5.8H65.8z M65.3,40.1l0.6-1.7c0.2-0.3,0.2-0.6,0.3-1
			c0.1,0.4,0.2,0.7,0.3,1.1l0.6,1.7L65.3,40.1z M72.6,40.2h1.2v1.7c-0.2,0.1-0.5,0.1-1,0.1c-1.3,0-2.2-0.8-2.2-2.3
			c0-1.4,0.9-2.3,2.3-2.3c0.6,0,1,0.1,1.3,0.2l0.2-0.6c-0.2-0.1-0.7-0.2-1.4-0.2c-1.9,0-3.1,1.3-3.1,3c0,0.9,0.3,1.6,0.7,2
			c0.5,0.6,1.2,0.8,2.1,0.8c0.8,0,1.4-0.2,1.8-0.3v-2.7h-1.9V40.2z M77.5,39.9h1.2v-0.6h-2.2v-1.8h1.3v-0.6h-3.1v5.7H80V42h-2.5
			V39.9z M85.2,39.4c0,0.8,0.1,1.5,0.1,2.3c-0.2-0.6-0.6-1.2-1-1.9l-1.8-2.9h-0.8l-0.2,5.8h0.7v-2.4c0-1,0-1.7,0-2.4
			c0.3,0.6,0.7,1.2,1.1,1.9l1.8,2.9h0.8v-5.8h-0.7V39.4z M91.1,37.3c0.5,0,0.9,0.1,1.2,0.2l0.2-0.6c-0.2-0.1-0.7-0.2-1.4-0.2
			c-1.8,0-3,1.2-3,3c0,1.9,1.2,2.9,2.8,2.9c0.7,0,1.3-0.1,1.5-0.2l-0.1-0.6c-0.3,0.1-0.7,0.2-1.2,0.2c-1.4,0-2.2-0.9-2.2-2.3
			C88.9,38.3,89.7,37.3,91.1,37.3z M94.2,42.7H95v-5.8h-0.8V42.7z M98,39.9h1.2v-0.6H98v-1.8h1.3v-0.6h-3.1v5.7h3.3V42H98V39.9z
			 M104.1,39.4c-0.7-0.3-1.1-0.5-1.1-1.1c0-0.4,0.3-0.9,1.1-0.9c0.5,0,0.9,0.1,1.1,0.2l0.2-0.6c-0.3-0.1-0.7-0.2-1.3-0.2
			c-1.1,0-1.9,0.7-1.9,1.6c0,0.8,0.6,1.3,1.5,1.6c0.8,0.2,1.1,0.5,1.1,1.1s-0.4,1-1.2,1c-0.5,0-0.9-0.2-1.3-0.4l-0.2,0.7
			c0.3,0.3,0.9,0.4,1.5,0.4c1.3,0,2-0.8,2-1.7C105.6,40.3,105.1,39.8,104.1,39.4z"/>
	</g>
</g>
</svg>
