<?xml version="1.0" encoding="utf-8"?>
<!-- Generator: Adobe Illustrator 18.1.1, SVG Export Plug-In . SVG Version: 6.00 Build 0)  -->
<svg version="1.1" id="Layer_1" xmlns="http://www.w3.org/2000/svg" xmlns:xlink="http://www.w3.org/1999/xlink" x="0px" y="0px"
	 viewBox="0 0 25 25" enable-background="new 0 0 25 25" xml:space="preserve">
<path fill="#FFFFFF" d="M20.3-0.1H5c-2.7,0-4.8,2.2-4.8,4.8v5.1V20c0,2.7,2.1,4.8,4.8,4.8h15.2c2.7,0,4.8-2.2,4.8-4.8V9.8V4.7
	C25.1,2.1,22.9-0.1,20.3-0.1z M21.6,2.8h0.5v0.6V7H18V2.8h11.6z M9.1,9.8C9.9,8.7,11.2,8,12.7,8s2.7,0.7,3.6,1.8
	c0.5,0.7,0.8,1.6,0.8,2.6c0,2.5-1.9,4.4-4.3,4.4s-4.3-2-4.3-4.4C8.3,11.4,8.6,10.5,9.1,9.8z M22.6,20.1c0,1.3-1,2.4-2.4,2.4H5
	c-1.3,0-2.4-1.1-2.4-2.4V9.8h3.7c-0.3,0.8-0.5,1.7-0.5,2.6c0,3.7,3,6.9,6.8,6.9s6.8-3,6.8-6.9c0-0.9-0.2-1.7-0.5-2.6h3.7L22.6,20.1
	L22.6,20.1z"/>
</svg>
