<?xml version="1.0" encoding="utf-8"?>
<!-- Generator: Adobe Illustrator 18.1.1, SVG Export Plug-In . SVG Version: 6.00 Build 0)  -->
<svg version="1.1" id="Layer_1" xmlns="http://www.w3.org/2000/svg" xmlns:xlink="http://www.w3.org/1999/xlink" x="0px" y="0px"
	 viewBox="0 0 25 25" enable-background="new 0 0 25 25" xml:space="preserve">
<g>
	<path fill="#FFFFFF" d="M23,0.1h1c-1,0-1.8,0.8-1.8,1.8v21.2c0,1,0.8,1.8,1.8,1.8h13c1,0,1.8-0.8,1.8-1.8V1.9
		C24.9,0.9,24.1,0.1,23,0.1z M7.5,21.2H3.8V9.4h3.7V21.2z M5.7,7.8c-1.2,0-2.1-1-2.1-2.1s1-2.1,2.1-2.1s2.1,1,2.1,2.1
		C7.8,6.8,6.8,7.8,5.7,7.8z M21.2,21.2h-3.7v-5.7c0-1.4,0-3.1-1.9-3.1c-1.9,0-2.2,1.5-2.2,3v5.8H9.8V9.4h3.5V11h0
		c0.5-0.9,1.7-1.9,3.5-1.9c3.7,0,4.4,2.4,4.4,5.6L21.2,21.2L21.2,21.2z"/>
</g>
</svg>
