<?xml version="1.0" encoding="utf-8"?>
<!-- Generator: Adobe Illustrator 18.1.1, SVG Export Plug-In . SVG Version: 6.00 Build 0)  -->
<svg version="1.1" id="Layer_1" xmlns="http://www.w3.org/2000/svg" xmlns:xlink="http://www.w3.org/1999/xlink" x="0px" y="0px"
	 viewBox="0 0 25 25" enable-background="new 0 0 25 25" xml:space="preserve">
<path fill="#FFFFFF" d="M21.1,2.5c2.3,0.1,3.5,1.4,3.5,4c0,0.2,0,0.3,0,0.5c-0.1,2.2-1.7,5.2-4.9,9c-3.3,4-6.1,6-8.3,6
	c-1.4,0-2.6-1.2-3.6-3.7l-1-3.3l-1-3.3C5.1,9.2,4.3,8,3.5,8C3.3,8,2.7,8.4,1.6,9.1L0.5,7.7l1.8-1.5L4,4.8c1.6-1.3,2.8-1.9,3.6-2
	c0.1,0,0.2,0,0.3,0c1.7,0,2.7,1.2,3.1,3.6c0.2,1.4,0.4,2.5,0.6,3.4c0.2,0.9,0.3,1.5,0.4,1.8c0.6,2.3,1.2,3.4,1.8,3.4
	c0.5,0,1.3-0.7,2.3-2.2c1-1.5,1.5-2.7,1.6-3.4c0-0.2,0-0.3,0-0.4c0-1-0.6-1.5-1.6-1.5c-0.6,0-1.1,0.1-1.8,0.3
	c1.1-3.5,3.3-5.3,6.6-5.3C20.9,2.5,21,2.5,21.1,2.5z"/>
<path fill="#FFFFFF" d="M275,288.5c9.4,0.2,14.1,5.6,14.2,16.1c0,0.7,0,1.4-0.1,2.1c-0.4,8.8-7,21-19.8,36.2
	c-13.2,16-24.4,24-33.6,24.1c-5.7,0-10.5-4.9-14.3-14.7l-4-13.5l-3.9-13.4c-2.9-9.7-6.1-14.6-9.3-14.6c-0.7,0-3.3,1.4-7.6,4.2
	l-4.6-5.5l7.2-6l7.1-5.9c6.3-5.1,11.1-7.8,14.4-8.2c0.4-0.1,0.9-0.1,1.3-0.1c6.8,0,11,4.8,12.6,14.6c0.9,5.6,1.7,10.1,2.3,13.5
	c0.6,3.4,1.1,5.9,1.5,7.3c2.2,9.2,4.7,13.8,7.2,13.8c2,0,5.1-3,9.2-9c4.1-6.2,6.2-10.7,6.5-13.7c0.1-0.6,0.1-1.2,0.1-1.7
	c0-4-2.2-6-6.6-6c-2.2,0-4.6,0.5-7.2,1.4c4.6-14.1,13.3-21.2,26.4-21.2C274.3,288.5,274.7,288.5,275,288.5z"/>
</svg>
